<?xml version="1.0" encoding="UTF-8"?>
<svg version="1.1" xmlns="http://www.w3.org/2000/svg" width="1024" height="1024">
<path d="M0 0 C337.92 0 675.84 0 1024 0 C1024 337.92 1024 675.84 1024 1024 C686.08 1024 348.16 1024 0 1024 C0 686.08 0 348.16 0 0 Z " fill="#00391D" transform="translate(0,0)"/>
<path d="M0 0 C123.42 0 246.84 0 374 0 C374 337.92 374 675.84 374 1024 C153.89 1024 -66.22 1024 -293 1024 C-286.16352201 1013.74528302 -286.16352201 1013.74528302 -283.25 1010.4375 C-282.67765625 1009.77621094 -282.1053125 1009.11492188 -281.515625 1008.43359375 C-280 1007 -280 1007 -278 1007 C-277.59587891 1006.11634766 -277.59587891 1006.11634766 -277.18359375 1005.21484375 C-275.99834654 1002.99690589 -274.75150104 1001.41668451 -273.0625 999.5625 C-269.8083954 995.92795728 -266.64072746 992.23222578 -263.5 988.5 C-259.84969931 984.16223225 -256.15826968 979.87545987 -252.33984375 975.68359375 C-250.90722785 973.88342625 -250.00765215 972.06129672 -249 970 C-247 967.75 -247 967.75 -245 966 C-244.34 966 -243.68 966 -243 966 C-243 965.34 -243 964.68 -243 964 C-242.02596117 962.97469597 -241.0173873 961.98230498 -240 961 C-238.31248065 959.01468312 -236.65046872 957.015871 -235 955 C-234.00613281 953.78763672 -234.00613281 953.78763672 -232.9921875 952.55078125 C-231.4639062 950.68436105 -229.9366023 948.8171402 -228.41015625 946.94921875 C-225.2911661 943.13262627 -222.16694936 939.32032071 -219.04296875 935.5078125 C-217.66151234 933.81202853 -216.28933129 932.1086528 -214.92578125 930.3984375 C-213.31854011 928.39672136 -211.6823257 926.43833178 -210 924.5 C-208.2958896 922.52323194 -206.63093853 920.53867316 -205 918.5 C-203.46948347 916.58685434 -201.91426619 914.72690501 -200.3125 912.875 C-197.70963293 909.86012131 -195.19369996 906.78313723 -192.6875 903.6875 C-189.62174503 899.91744997 -186.46891979 896.27115582 -183.1875 892.6875 C-180.09080111 889.29025495 -177.47233061 885.88509096 -175 882 C-173.41454541 879.88930278 -171.77630145 877.96328055 -170 876 C-169.34 876 -168.68 876 -168 876 C-167.66162109 875.19949219 -167.66162109 875.19949219 -167.31640625 874.3828125 C-165.56839453 871.21875568 -163.28871866 868.59778015 -160.9375 865.875 C-160.44942871 865.30386475 -159.96135742 864.73272949 -159.45849609 864.14428711 C-155.68495508 859.74673126 -151.82133443 855.43390098 -147.9296875 851.140625 C-144.4664846 847.29885336 -141.24838249 843.38841196 -138.3125 839.125 C-137.1678125 837.578125 -137.1678125 837.578125 -136 836 C-135.34 836 -134.68 836 -134 836 C-133.938125 835.443125 -133.87625 834.88625 -133.8125 834.3125 C-132.66855795 831.05666495 -130.4394823 829.43605124 -128 827 C-126.18422998 824.82087069 -124.47012341 822.56751152 -122.75 820.3125 C-119.41436478 815.99370646 -116.02076607 811.82282587 -112.3125 807.8125 C-106.94097638 801.97724772 -102.39412127 795.5911819 -98 789 C-97.34 789 -96.68 789 -96 789 C-95.62875 788.1646875 -95.62875 788.1646875 -95.25 787.3125 C-93.77641739 784.58637216 -91.95148859 782.41005393 -90 780 C-88.45379975 778.00350284 -86.91247468 776.00322433 -85.375 774 C-84.9433252 773.43821045 -84.51165039 772.8764209 -84.06689453 772.29760742 C-81.84420214 769.40472619 -79.6242994 766.50972342 -77.40625 763.61328125 C-64.45917291 746.71919737 -64.45917291 746.71919737 -58.6875 740.25 C-55.00332943 736.0958669 -51.60920493 731.73280511 -48.19702148 727.35571289 C-44.56058228 722.69525839 -40.84002695 718.11151824 -37.07421875 713.5546875 C-34.4293913 710.2972164 -31.90767544 706.95338694 -29.41015625 703.58203125 C-28.94480469 703.05996094 -28.47945312 702.53789063 -28 702 C-27.34 702 -26.68 702 -26 702 C-25.5978125 701.1646875 -25.5978125 701.1646875 -25.1875 700.3125 C-19.94994315 690.11304718 -12.20411222 681.43042778 -5.02734375 672.5625 C3.76902221 661.89235846 3.76902221 661.89235846 11.50390625 650.46484375 C13.73541054 646.78839673 16.51626845 643.60859956 19.2578125 640.3046875 C21.16555368 638.03636734 21.16555368 638.03636734 22 635 C22.66 635 23.32 635 24 635 C24.35771484 633.93265625 24.35771484 633.93265625 24.72265625 632.84375 C26.20394143 629.54596526 28.09016995 627.24433332 30.4375 624.5 C33.31758993 621.12170671 35.79289186 617.85003976 38 614 C41.29769624 608.85485489 44.78770937 603.90145971 48.4921875 599.04296875 C50.11411758 596.84537955 51.62398386 594.59419539 53.125 592.3125 C55.26869885 589.06889284 57.38741292 585.89250713 60 583 C60.66 583 61.32 583 62 583 C61.67 582.01 61.34 581.02 61 580 C62.328125 578.1328125 62.328125 578.1328125 64.25 576.125 C66.26363154 573.94488711 67.97011594 572.04980676 69.5 569.5 C70.90615527 567.15640788 72.36508339 565.3980872 74.1875 563.375 C79.29874983 557.6573307 83.77883609 551.43922154 87.9375 545 C90.73903073 540.9250462 93.9068388 537.18526023 97.07421875 533.390625 C99.00498193 531.16739552 99.00498193 531.16739552 100 529 C100.66 529 101.32 529 102 529 C100.39729406 525.86382696 100.39729406 525.86382696 98.04296875 525.51953125 C95.42019983 524.8525556 94.81209818 523.89668722 93.3125 521.6875 C92.68794922 520.79611328 92.68794922 520.79611328 92.05078125 519.88671875 C89.92620854 516.07196552 89.63239436 511.83610249 89 507.5625 C88.22716831 502.35192384 87.33683916 497.28419931 86 492.1875 C85.2961198 489.43408629 84.80656371 486.76226562 84.5 483.9375 C84.11402551 480.05226557 84.11402551 480.05226557 83 476.625 C81.9709119 472.89455562 81.60787079 469.44031519 81.27734375 465.6015625 C80.82300918 461.33977629 79.88016865 457.19036813 79 453 C77.92944943 447.59294384 76.97454642 442.24474798 76.5 436.75 C76.13706502 432.63457655 75.15554188 428.97217523 74 425 C73.56662378 422.00916903 73.29121543 419.00746114 73 416 C72.8092817 411.64449869 72.8092817 411.64449869 71 408 C70.54973171 404.295692 70.18053077 400.59236408 69.83789062 396.87695312 C69.37803802 392.30459757 68.57413282 388.3485419 67 384 C66.96213099 382.33376361 66.95372155 380.66602403 67 379 C66.67 378.34 66.34 377.68 66 377 C65.79731571 375.56713465 65.63560117 374.12826242 65.5 372.6875 C65.16457691 369.40140188 64.68084305 366.23400448 64 363 C63.855625 361.88625 63.71125 360.7725 63.5625 359.625 C63.08421754 355.95881179 63.08421754 355.95881179 61.875 352.375 C61.00329259 349.01270001 61.00801377 347.27355456 62 344 C61.34 344 60.68 344 60 344 C59.95101563 343.20335937 59.90203125 342.40671875 59.8515625 341.5859375 C59.73941406 339.99652344 59.73941406 339.99652344 59.625 338.375 C59.55539062 337.33085937 59.48578125 336.28671875 59.4140625 335.2109375 C59.10537433 332.00251876 59.10537433 332.00251876 58.0234375 329.078125 C56.83293748 325.49753714 56.41407504 322.12385798 56 318.375 C55.83380412 316.94770912 55.6658209 315.52062527 55.49609375 314.09375 C55.41343262 313.39636719 55.33077148 312.69898438 55.24560547 311.98046875 C54.1958314 303.51549134 52.44011888 295.23121627 50.48828125 286.93359375 C50 284 50 284 51 281 C50.34 281 49.68 281 49 281 C48.855625 279.845 48.71125 278.69 48.5625 277.5 C48.4696875 276.77039063 48.376875 276.04078125 48.28125 275.2890625 C48.10161775 273.82705558 47.93374962 272.36352311 47.78125 270.8984375 C47.44527718 267.79068894 46.9901424 264.97042719 46 262 C44.4414565 257.3243695 43.40737222 252.77788334 45 248 C44.34 248 43.68 248 43 248 C42.896875 246.7625 42.79375 245.525 42.6875 244.25 C42.27105588 240.40543617 41.49094229 236.7990775 40.5 233.0625 C39.29533954 228.47664281 38.61587811 224.1128344 38.25 219.39453125 C37.90899341 216.12832749 37.18178829 212.99855066 36.40234375 209.8125 C36 208 36 208 36 206 C35.5359375 204.63875 35.5359375 204.63875 35.0625 203.25 C33.56181848 198.65968005 32.37881722 194.68341692 34 190 C33.34 190 32.68 190 32 190 C31.87625 188.700625 31.7525 187.40125 31.625 186.0625 C31.18381178 182.03508185 30.4016618 178.19524905 29.46875 174.2578125 C28.84087071 171.23352725 28.57856491 168.20866103 28.2890625 165.13671875 C28.01288962 162.68814831 28.01288962 162.68814831 26.875 159.1875 C26.04098904 156.14931723 25.85427377 154.86431558 27 152 C26.34 152 25.68 152 25 152 C24.95101563 151.24976563 24.90203125 150.49953125 24.8515625 149.7265625 C24.36060918 143.00558084 23.45832603 136.57386033 22 130 C21.32710442 126.84672291 20.84294997 123.77336599 20.5625 120.5625 C20.17613752 116.80481327 19.22028398 113.57949968 18 110 C18 108.33333333 18 106.66666667 18 105 C17.50798759 103.35995864 17.01422223 101.72037608 16.50390625 100.0859375 C15.89245466 97.55481229 15.69557762 95.0958484 15.5 92.5 C15.15861157 88.07991826 14.24941576 84.2627126 13 80 C12.66586274 77.96176269 12.35596734 75.91948916 12.0625 73.875 C11.23544633 68.13855577 10.01948384 62.58619661 8.5859375 56.97265625 C7.98184218 53.90787933 7.97342187 51.11407135 8 48 C7.67 47.34 7.34 46.68 7 46 C7.4375 43.875 7.4375 43.875 8 42 C7.34 42 6.68 42 6 42 C6.020625 41.21625 6.04125 40.4325 6.0625 39.625 C6.18684063 37.01885039 6.18684063 37.01885039 5 35 C5.185625 34.360625 5.37125 33.72125 5.5625 33.0625 C5.706875 32.381875 5.85125 31.70125 6 31 C5.34 30.01 4.68 29.02 4 28 C3.4375 25.7578125 3.4375 25.7578125 3 23.125 C2.83628906 22.15820312 2.67257812 21.19140625 2.50390625 20.1953125 C1.79773476 15.71741884 1.1172609 11.23604189 0.46484375 6.75 C0.05915108 3.92130692 0.05915108 3.92130692 -1 1 C-0.67 0.67 -0.34 0.34 0 0 Z " fill="#B1F2B2" transform="translate(650,0)"/>
<path d="M0 0 C97.68 0 195.36 0 296 0 C297.27329293 7.00311112 298.45867017 13.92169184 299.4375 20.95703125 C300.15560265 24.84176712 301.23090493 28.46180986 303 32 C302.66666667 33.33333333 302.33333333 34.66666667 302 36 C302.33 36.66 302.66 37.32 303 38 C302.5625 40.125 302.5625 40.125 302 42 C302.66 42 303.32 42 304 42 C303.979375 42.721875 303.95875 43.44375 303.9375 44.1875 C303.99879075 46.94558382 304.44335335 49.30361943 305 52 C305.29644463 53.83256682 305.58780164 55.66596138 305.875 57.5 C306.6025842 61.94756358 307.50946698 66.30585531 308.5625 70.6875 C309.6213926 75.13059208 310.41572102 79.44878954 310.7890625 84 C311.12307842 87.16696576 311.84041311 90.24694934 312.5 93.359375 C313.35125209 97.42942407 314.0818013 101.41752133 314.4375 105.5625 C314.74267911 108.77818362 315.43984901 111.47303915 316.5625 114.5 C318.00250117 118.47913366 318.19176981 121.81367565 318.046875 126.015625 C317.98844121 128.48932214 318.40027292 130.6010917 319 133 C322.68725361 148.62549277 322.68725361 148.62549277 321 152 C321.66 152 322.32 152 323 152 C323.04898437 152.65226563 323.09796875 153.30453125 323.1484375 153.9765625 C323.57678393 158.9837846 324.37385692 163.2299803 326 168 C326 170 326 172 326 174 C326.67273278 177.74248429 327.53116752 181.44499042 328.62890625 185.0859375 C329 187 329 187 328 190 C328.66 190 329.32 190 330 190 C331.125 197.75 331.125 197.75 330 200 C330.66 200.33 331.32 200.66 332 201 C332.38218767 202.65614657 332.71395102 204.32457024 333 206 C333.33 206.66 333.66 207.32 334 208 C333.34 208 332.68 208 332 208 C332.34224609 209.13888672 332.34224609 209.13888672 332.69140625 210.30078125 C333.12259766 211.79158203 333.12259766 211.79158203 333.5625 213.3125 C333.85253906 214.29863281 334.14257812 215.28476563 334.44140625 216.30078125 C335 219 335 219 334 222 C334.66 222.33 335.32 222.66 336 223 C336.27002135 225.12641811 336.52783322 227.25530475 336.71484375 229.390625 C337.00478726 232.04380675 337.49755598 234.58006606 338.0625 237.1875 C338.83581303 240.85930483 339.19840012 244.23039775 339 248 C339.66 248 340.32 248 341 248 C340.95875 248.86625 340.9175 249.7325 340.875 250.625 C340.83629381 253.95112617 340.83629381 253.95112617 341.9375 256.75 C343.12257032 260.37492098 343.40288525 263.68264666 343.7109375 267.46484375 C343.9871407 269.88722048 344.47677551 272.09092733 345.125 274.4375 C346 278 346 278 345 281 C345.66 281 346.32 281 347 281 C347.04898437 281.64066406 347.09796875 282.28132813 347.1484375 282.94140625 C347.60448882 288.21744827 348.51738336 292.90350531 350 298 C350.31664851 300.3259983 350.55356268 302.64567041 350.75390625 304.984375 C350.95685273 307.20209651 350.95685273 307.20209651 352 310 C352.42963834 313.27824883 352.80947514 316.55658564 353.16210938 319.84375 C353.68939412 324.40497737 354.68761933 328.58515142 356 333 C356.27775225 334.59647165 356.51536627 336.20121541 356.6875 337.8125 C356.77386719 338.56144531 356.86023438 339.31039063 356.94921875 340.08203125 C357 342 357 342 356 344 C356.66 344 357.32 344 358 344 C358.04898437 344.71285156 358.09796875 345.42570312 358.1484375 346.16015625 C358.6227458 352.60202266 358.6227458 352.60202266 360.0625 358.875 C360.95455572 361.84851905 361 363.94278926 361 367 C361.33 367.99 361.66 368.98 362 370 C362.97260588 372.91781765 363.08426537 374.96644664 363 378 C363.33 378.66 363.66 379.32 364 380 C364.17860936 381.39201895 364.31955707 382.78903387 364.4375 384.1875 C364.72898499 387.10234993 365.14600126 389.48362919 366 392.3125 C367.17238688 396.63567662 367.47343635 400.77156965 367.75390625 405.23046875 C367.96739616 407.63307739 368.38973085 409.68007979 369 412 C369.32879882 414.03910529 369.63954266 416.08116037 369.9375 418.125 C370.53618949 422.10739381 371.17917708 426.0574647 372 430 C373.47939834 437.15427791 374.4651599 444.38885335 375.53515625 451.61328125 C375.70917969 452.77214844 375.88320313 453.93101562 376.0625 455.125 C376.21847656 456.17945313 376.37445312 457.23390625 376.53515625 458.3203125 C376.94673997 461.08926763 376.94673997 461.08926763 378 464 C377.5625 466.1875 377.5625 466.1875 377 468 C377.66 468.33 378.32 468.66 379 469 C379.34375 470.85546875 379.34375 470.85546875 379.5 473.1875 C379.75053351 476.03284481 380.07195704 478.21137382 381 480.9375 C382.18211443 484.55772545 382.42358835 487.94390032 382.65625 491.73046875 C382.87778022 494.27583169 382.87778022 494.27583169 385 497 C385 499.33333333 385 501.66666667 385 504 C385.99438381 511.28824838 387.60895066 519.60895066 393 525 C395.59855733 525.8042208 395.59855733 525.8042208 398 526 C398 526.99 398 527.98 398 529 C397.34 529 396.68 529 396 529 C395.64421875 530.08087891 395.64421875 530.08087891 395.28125 531.18359375 C393.79911723 534.44157462 391.96304849 536.47549939 389.5 539.0625 C386.73826953 541.97218032 384.74082529 544.41752941 383 548 C381.4680435 550.11729272 379.91778506 552.19024794 378.3125 554.25 C377.86769287 554.8262915 377.42288574 555.40258301 376.96459961 555.99633789 C374.43517603 559.24754258 371.82831286 562.38210416 369.0625 565.4375 C366.3783982 568.42192089 364.737567 571.36690536 363 575 C362.13056499 576.10463172 361.2334605 577.18794528 360.3125 578.25 C357.78546669 580.6562756 357.78546669 580.6562756 358 583 C356.83238974 584.13326878 355.66340763 585.26515185 354.48828125 586.390625 C352.15011262 588.91903832 350.39748185 591.7946454 348.53125 594.6796875 C347.11128615 596.83136741 345.62341501 598.88672336 344.0625 600.9375 C339.86808189 606.45299468 335.89144974 612.12622911 332.08203125 617.9140625 C329.92496348 621.11121735 327.64606753 624.17971941 325.3125 627.25 C322.40487544 630.96788907 322.40487544 630.96788907 320 635 C319.34 635 318.68 635 318 635 C317.92652344 635.72058594 317.85304688 636.44117188 317.77734375 637.18359375 C316.79042218 640.75932467 315.12743517 642.40727912 312.5625 645.0625 C309.7745805 647.96676927 307.71836506 650.38311871 306 654 C304.6797629 655.87847688 303.32096007 657.7300864 301.9375 659.5625 C301.54264404 660.08553711 301.14778809 660.60857422 300.7409668 661.14746094 C297.29136557 665.68500806 293.68682214 670.08797375 290.0546875 674.48046875 C287.79492942 677.25146487 285.65348058 680.08924506 283.53515625 682.96875 C281.70904676 685.38497629 279.79223825 687.71803187 277.875 690.0625 C275.59115573 692.88805306 273.531369 695.61136746 271.8125 698.8125 C269.8777603 702.21497327 267.7676033 704.23624594 265 707 C262.69288689 709.6408442 260.47024191 712.34846708 258.25 715.0625 C257.32465454 716.18869751 257.32465454 716.18869751 256.38061523 717.33764648 C252.0841408 722.59612709 247.98071376 727.95870243 243.953125 733.42578125 C241.65234152 736.45821388 239.18299125 739.28638643 236.6328125 742.109375 C234.32276083 744.78417168 232.29108239 747.6401018 230.26171875 750.53125 C229.84535156 751.0159375 229.42898438 751.500625 229 752 C228.34 752 227.68 752 227 752 C226.75378906 752.72058594 226.50757813 753.44117188 226.25390625 754.18359375 C224.85727052 757.32058553 223.16706944 759.45543733 220.9375 762.0625 C217.63101976 766.00586246 214.44850669 769.99711709 211.375 774.125 C210.63894531 775.11242187 209.90289063 776.09984375 209.14453125 777.1171875 C207.74593019 778.99727417 206.34748524 780.87747699 204.94921875 782.7578125 C204.32660156 783.58023438 203.70398438 784.40265625 203.0625 785.25 C202.51722656 785.97703125 201.97195313 786.7040625 201.41015625 787.453125 C200.94480469 787.96359375 200.47945312 788.4740625 200 789 C199.34 789 198.68 789 198 789 C197.62875 789.8353125 197.62875 789.8353125 197.25 790.6875 C195.78224216 793.402852 193.93395084 795.59721259 192 798 C191.566875 798.78375 191.13375 799.5675 190.6875 800.375 C189.17545256 802.7270738 187.81521479 804.22196785 185.8125 806.125 C181.88731389 809.99806619 178.60109224 814.20900188 175.3125 818.625 C173.68572316 820.78647818 172.05773211 822.94702652 170.42822266 825.10644531 C169.19331862 826.74369586 167.96159698 828.38334585 166.73046875 830.0234375 C166.15941406 830.67570313 165.58835937 831.32796875 165 832 C164.34 832 163.68 832 163 832 C162.938125 832.556875 162.87625 833.11375 162.8125 833.6875 C161.66639359 836.94949518 159.45961261 838.59758769 157 841 C156.4225 841.9075 155.845 842.815 155.25 843.75 C153.25089031 846.63760289 151.31384462 848.75551676 148.8125 851.1875 C142.30040194 857.54989466 136.7839753 864.66406249 131.25 871.875 C128.70777813 875.17460437 125.98878393 878.09199401 123 881 C121.65576661 882.65788785 120.32381517 884.32576317 119 886 C118.02498931 887.10783823 117.0452064 888.21148251 116.0625 889.3125 C111.77772746 894.16423811 107.74478524 899.21893723 103.70727539 904.27661133 C100.64942978 908.07946435 97.52585166 911.62488177 94 915 C94.33 915.66 94.66 916.32 95 917 C94.45730469 917.45890625 93.91460937 917.9178125 93.35546875 918.390625 C92.64003906 919.00421875 91.92460937 919.6178125 91.1875 920.25 C90.47980469 920.85328125 89.77210938 921.4565625 89.04296875 922.078125 C87.07168295 923.93256594 85.57269643 925.80615455 84 928 C83.175 928.94875 82.35 929.8975 81.5 930.875 C77.86182813 935.07850184 74.46060285 939.46329588 71.046875 943.84912109 C68.82649239 946.69696856 66.58578305 949.51769301 64.265625 952.28515625 C62.03022501 954.89239547 62.03022501 954.89239547 60.3125 957.375 C59.879375 957.91125 59.44625 958.4475 59 959 C58.34 959 57.68 959 57 959 C56.01 961.475 56.01 961.475 55 964 C54.34 964 53.68 964 53 964 C53 964.66 53 965.32 53 966 C51.32278959 967.56958193 49.53205886 968.9480525 47.7265625 970.3671875 C45.84533975 972.14626241 45.13612107 973.69332995 44 976 C42.66613515 977.57739205 41.28573069 979.11596056 39.875 980.625 C36.76289658 984.01594789 33.78581119 987.44711887 30.9375 991.0625 C27.13795983 995.87977414 23.10385272 1000.44199859 19 1005 C17.21774965 1007.01963253 15.44374682 1009.04598066 13.67578125 1011.078125 C12.53475837 1012.38671068 11.38598241 1013.68856719 10.23046875 1014.984375 C9.68003906 1015.60828125 9.12960937 1016.2321875 8.5625 1016.875 C7.82193359 1017.70644531 7.82193359 1017.70644531 7.06640625 1018.5546875 C5.80209393 1019.96886621 5.80209393 1019.96886621 6 1022 C2.69692536 1024.20204976 1.72909545 1024.2482028 -2.10624695 1024.24050903 C-3.1621402 1024.24325836 -4.21803345 1024.24600769 -5.30592346 1024.24884033 C-6.46397995 1024.24164978 -7.62203644 1024.23445923 -8.81518555 1024.22705078 C-10.03481995 1024.22734283 -11.25445435 1024.22763489 -12.51104736 1024.22793579 C-15.85590096 1024.22678032 -19.20050836 1024.21674268 -22.54531837 1024.20278788 C-26.04068767 1024.19029424 -29.53606018 1024.1891111 -33.03144836 1024.18673706 C-39.65062443 1024.18051826 -46.26973451 1024.16410206 -52.8888815 1024.14403808 C-60.42446951 1024.12169149 -67.96006065 1024.11068878 -75.49567354 1024.10064721 C-90.99715392 1024.07973617 -106.49856845 1024.04455245 -122 1024 C-120.90573267 1020.717198 -120.23477173 1020.1301877 -117.64306641 1018.01416016 C-112.58459805 1013.71821713 -107.93255294 1009.04622109 -103.2629509 1004.33811569 C-101.67527994 1002.73748897 -100.08433788 1001.14017575 -98.49258423 999.54360962 C-95.11720707 996.1569029 -91.74580934 992.76625233 -88.375 989.375 C-84.45742174 985.43371687 -80.53817307 981.49412433 -76.61467361 977.55873489 C-75.05616496 975.99379991 -73.50072577 974.42585897 -71.94540405 972.85775757 C-67.45391912 968.34330255 -62.94689105 964.01146553 -58 960 C-56.31005765 958.35693871 -54.64527273 956.68778944 -53 955 C-51.84309503 953.83074183 -50.68521648 952.66244654 -49.52661133 951.49487305 C-48.8927803 950.85458664 -48.25894928 950.21430023 -47.60591125 949.55461121 C-44.76114835 946.68312442 -41.9111078 943.81690043 -39.06079102 940.95092773 C-37.55478597 939.43478344 -36.05056892 937.91686114 -34.5480957 936.3972168 C-32.37655263 934.2015481 -30.19873134 932.01228462 -28.01953125 929.82421875 C-27.34557816 929.13994308 -26.67162506 928.45566742 -25.97724915 927.75065613 C-25.3528746 927.12613052 -24.72850006 926.50160492 -24.08520508 925.8581543 C-23.26177361 925.02806099 -23.26177361 925.02806099 -22.42170715 924.18119812 C-21 923 -21 923 -19 923 C-19 922.34 -19 921.68 -19 921 C-17.53276062 919.55400085 -17.53276062 919.55400085 -15.50268555 917.8737793 C-11.09684762 914.12502179 -7.02103005 910.13263858 -2.95703125 906.01953125 C-2.22554367 905.28425705 -1.49405609 904.54898285 -0.74040222 903.79142761 C1.57136789 901.46755617 3.87983945 899.14045192 6.1875 896.8125 C9.24057461 893.73276376 12.29699262 890.65640227 15.35546875 887.58203125 C16.04827438 886.88092728 16.74108002 886.1798233 17.45487976 885.45747375 C20.83014497 882.06517395 24.23626806 878.96399302 28 876 C29.69084937 874.35787213 31.35401427 872.68709411 33 871 C34.21808229 869.76952309 35.43716591 868.54003702 36.65698242 867.3112793 C37.66779121 866.29078743 37.66779121 866.29078743 38.69902039 865.24967957 C41.72698457 862.19501916 44.7601958 859.14559207 47.79370117 856.09643555 C49.39671247 854.48328792 50.99793561 852.86836151 52.59741211 851.25170898 C54.90795227 848.91704403 57.22477346 846.58877952 59.54296875 844.26171875 C60.2606694 843.53369553 60.97837006 842.8056723 61.71781921 842.05558777 C62.38223526 841.39102066 63.04665131 840.72645355 63.73120117 840.04174805 C64.31568527 839.45282272 64.90016937 838.8638974 65.50236511 838.25712585 C67 837 67 837 69 837 C69.33 836.01 69.66 835.02 70 834 C71.5916748 832.42956543 71.5916748 832.42956543 73.60742188 830.76367188 C77.70537615 827.28467232 81.50764737 823.6060454 85.28125 819.78125 C85.93903442 819.11967896 86.59681885 818.45810791 87.27453613 817.77648926 C89.35217274 815.68677265 91.42650627 813.59382685 93.5 811.5 C96.2365815 808.736583 98.97662263 805.97666278 101.71875 803.21875 C102.33045044 802.59875122 102.94215088 801.97875244 103.5723877 801.33996582 C107.2641322 797.62769911 111.08921617 794.14715825 115.0501709 790.72497559 C118.11125645 788.01689321 120.9758415 785.12856141 123.84375 782.21875 C124.45714233 781.60157104 125.07053467 780.98439209 125.70251465 780.34851074 C127.63750058 778.40145962 129.56917405 776.45117593 131.5 774.5 C145.87554489 759.97294372 145.87554489 759.97294372 151.97851562 754.79882812 C156.8736335 750.44288265 161.39774955 745.66190925 166 741 C177.82762474 729.0190542 177.82762474 729.0190542 184.171875 723.60546875 C187.44193933 720.73368148 190.45449715 717.60592791 193.5 714.5 C197.86372895 710.08914771 202.23440974 705.80236042 206.98046875 701.80078125 C210.32800834 698.81583783 213.43232712 695.58701195 216.58325195 692.3972168 C219.83812908 689.11772424 223.18928876 686.04999743 226.71875 683.06640625 C230.73414423 679.42917415 234.48642376 675.51391423 238.25341797 671.62158203 C238.83752441 671.02587402 239.42163086 670.43016602 240.0234375 669.81640625 C240.54856934 669.27443604 241.07370117 668.73246582 241.61474609 668.17407227 C243 667 243 667 245 667 C245.33 666.01 245.66 665.02 246 664 C247.41259766 662.60424805 247.41259766 662.60424805 249.2890625 661.07421875 C254.71310864 656.4694674 259.72082274 651.46524185 264.74755859 646.43774414 C266.3875231 644.79999381 268.03536992 643.17044863 269.68359375 641.54101562 C270.73486283 640.49267646 271.78566147 639.4438653 272.8359375 638.39453125 C273.3254892 637.91216507 273.81504089 637.42979889 274.31942749 636.93281555 C276.79894891 634.43651054 278.5297522 632.18456125 280 629 C281.3162976 628.30029802 282.651348 627.63510629 284 627 C285.72437333 625.30227334 285.72437333 625.30227334 287.3125 623.3125 C289.68145399 620.50032236 292.10286174 617.86449798 294.75 615.3125 C296.74399691 613.36261807 298.07854981 611.86581074 299.5 609.4375 C302.08021075 605.24465753 306.11020579 602.52577647 309.90625 599.4609375 C313.43020177 596.54919769 315.74194246 594.04073454 318 590 C318.66 590 319.32 590 320 590 C320.3403125 589.1646875 320.3403125 589.1646875 320.6875 588.3125 C322.37377267 585.34144815 324.530354 583.35477875 327 581 C327.886875 580.071875 328.77375 579.14375 329.6875 578.1875 C332 576 332 576 334 576 C334 575.34 334 574.68 334 574 C335.49609375 572.78125 335.49609375 572.78125 337.4375 571.5 C340.22531847 569.7134637 340.22531847 569.7134637 342 567 C342.66 567 343.32 567 344 567 C344 566.01 344 565.02 344 564 C343.08734375 563.94714844 342.1746875 563.89429688 341.234375 563.83984375 C338 563 338 563 335.953125 560.56640625 C335.39109375 559.57511719 334.8290625 558.58382812 334.25 557.5625 C331.96269522 553.52226461 331.96269522 553.52226461 329 550 C328.67 549.01 328.34 548.02 328 547 C327.34 546.67 326.68 546.34 326 546 C325.34236032 544.44243234 324.69041466 542.88228665 324.0625 541.3125 C322.18111956 537.2177308 319.75888562 533.42408248 317.42578125 529.57421875 C316 527 316 527 316 525 C315.34 524.67 314.68 524.34 314 524 C312.86274362 522.2208386 311.78955795 520.40045719 310.75 518.5625 C307.94282346 513.63669966 305.05290289 508.77987985 302.06640625 503.9609375 C301 502 301 502 301 500 C300.34 500 299.68 500 299 500 C298.34 497.69 297.68 495.38 297 493 C296.34 493 295.68 493 295 493 C294.773125 492.34 294.54625 491.68 294.3125 491 C292.24231985 486.26815967 289.66733454 481.66733454 286 478 C285.31398864 476.34120205 284.64990874 474.6732725 284 473 C283.10944818 471.27790883 282.19110171 469.56999502 281.25 467.875 C279.61181239 464.92226671 277.98426032 461.97003259 276.4140625 458.98046875 C275.90617187 458.01753906 275.39828125 457.05460937 274.875 456.0625 C274.41867187 455.18722656 273.96234375 454.31195313 273.4921875 453.41015625 C272.07854468 450.91076009 272.07854468 450.91076009 269.8828125 448.93359375 C267.77670424 446.77068174 267.65346118 445.86082219 267 443 C265.73411919 440.70468992 264.43629299 438.47868755 263.0625 436.25 C262.46078979 435.26036255 262.46078979 435.26036255 261.84692383 434.25073242 C258.5950185 428.91987426 255.2755377 423.63119449 251.95019531 418.34594727 C247.95717647 411.97967567 244.10634311 405.53082892 240.25512695 399.078125 C237.68657862 394.7829437 235.09067147 390.51699842 232.375 386.3125 C228.19519099 379.8217389 224.34403927 373.13995589 220.44921875 366.47607422 C213.75995005 355.047071 207.06145718 343.62489332 200.07421875 332.375 C197.94777542 328.91502441 195.86293354 325.43244759 193.78271484 321.94458008 C188.73268044 313.47825129 183.57031051 305.09802307 178.28125 296.77905273 C175.37520629 292.20042153 172.52166553 287.59863822 169.75 282.9375 C165.71130608 276.14694172 161.58182766 269.41405878 157.4375 262.6875 C156.75002686 261.57157471 156.06255371 260.45564941 155.35424805 259.3059082 C152.56592607 254.78109295 149.77565578 250.25747976 146.98535156 245.73388672 C137.30590448 230.03884253 127.69758221 214.30229779 118.14111328 198.53222656 C114.95095918 193.26842687 111.75560556 188.00778484 108.56066895 182.74688721 C107.50073611 181.00121236 106.44122384 179.25528294 105.38183594 177.50927734 C102.17156775 172.21892178 98.95898071 166.93003671 95.735672 161.64761353 C87.36409895 147.92768832 79.10344157 134.15279015 71.05078125 120.2421875 C66.30135506 112.05554772 61.39676345 103.98260113 56.3125 96 C48.89370123 84.29712245 41.671003 72.48163224 34.56835938 60.58447266 C34.07142578 59.75222168 33.57449219 58.9199707 33.0625 58.0625 C32.32290039 56.8237915 32.32290039 56.8237915 31.56835938 55.56005859 C27.48913737 48.75560862 23.28120376 42.03793802 19.00805664 35.35375977 C16.58919539 31.56199746 14.26351817 27.75103549 12.05859375 23.82885742 C10.82239367 21.69316212 9.51807934 19.6076382 8.203125 17.51953125 C7.71972656 16.74802734 7.23632812 15.97652344 6.73828125 15.18164062 C5.73638696 13.58676166 4.72844729 11.99566618 3.71484375 10.40820312 C3.23660156 9.64056641 2.75835937 8.87292969 2.265625 8.08203125 C1.83024414 7.39343018 1.39486328 6.7048291 0.94628906 5.99536133 C0 4 0 4 0 0 Z " fill="#159153" transform="translate(354,0)"/>
<path d="M0 0 C46.2 0 92.4 0 140 0 C141.27329293 7.00311112 142.45867017 13.92169184 143.4375 20.95703125 C144.15560265 24.84176712 145.23090493 28.46180986 147 32 C146.66666667 33.33333333 146.33333333 34.66666667 146 36 C146.33 36.66 146.66 37.32 147 38 C146.5625 40.125 146.5625 40.125 146 42 C146.66 42 147.32 42 148 42 C147.979375 42.721875 147.95875 43.44375 147.9375 44.1875 C147.99879075 46.94558382 148.44335335 49.30361943 149 52 C149.29644463 53.83256682 149.58780164 55.66596138 149.875 57.5 C150.6025842 61.94756358 151.50946698 66.30585531 152.5625 70.6875 C153.6213926 75.13059208 154.41572102 79.44878954 154.7890625 84 C155.12307842 87.16696576 155.84041311 90.24694934 156.5 93.359375 C157.35125209 97.42942407 158.0818013 101.41752133 158.4375 105.5625 C158.74267911 108.77818362 159.43984901 111.47303915 160.5625 114.5 C162.00250117 118.47913366 162.19176981 121.81367565 162.046875 126.015625 C161.98844121 128.48932214 162.40027292 130.6010917 163 133 C166.68725361 148.62549277 166.68725361 148.62549277 165 152 C165.66 152 166.32 152 167 152 C167.04898437 152.65226563 167.09796875 153.30453125 167.1484375 153.9765625 C167.57678393 158.9837846 168.37385692 163.2299803 170 168 C170 170 170 172 170 174 C170.67273278 177.74248429 171.53116752 181.44499042 172.62890625 185.0859375 C173 187 173 187 172 190 C172.66 190 173.32 190 174 190 C175.125 197.75 175.125 197.75 174 200 C174.66 200.33 175.32 200.66 176 201 C176.38218767 202.65614657 176.71395102 204.32457024 177 206 C177.33 206.66 177.66 207.32 178 208 C177.34 208 176.68 208 176 208 C176.34224609 209.13888672 176.34224609 209.13888672 176.69140625 210.30078125 C177.12259766 211.79158203 177.12259766 211.79158203 177.5625 213.3125 C177.85253906 214.29863281 178.14257812 215.28476563 178.44140625 216.30078125 C179 219 179 219 178 222 C178.66 222.33 179.32 222.66 180 223 C180.27002135 225.12641811 180.52783322 227.25530475 180.71484375 229.390625 C181.00478726 232.04380675 181.49755598 234.58006606 182.0625 237.1875 C182.83581303 240.85930483 183.19840012 244.23039775 183 248 C183.66 248 184.32 248 185 248 C184.95875 248.86625 184.9175 249.7325 184.875 250.625 C184.83629381 253.95112617 184.83629381 253.95112617 185.9375 256.75 C187.12257032 260.37492098 187.40288525 263.68264666 187.7109375 267.46484375 C187.9871407 269.88722048 188.47677551 272.09092733 189.125 274.4375 C190 278 190 278 189 281 C189.66 281 190.32 281 191 281 C191.04898437 281.64066406 191.09796875 282.28132813 191.1484375 282.94140625 C191.60448882 288.21744827 192.51738336 292.90350531 194 298 C194.31664851 300.3259983 194.55356268 302.64567041 194.75390625 304.984375 C194.95685273 307.20209651 194.95685273 307.20209651 196 310 C196.42963834 313.27824883 196.80947514 316.55658564 197.16210938 319.84375 C197.68939412 324.40497737 198.68761933 328.58515142 200 333 C200.27775225 334.59647165 200.51536627 336.20121541 200.6875 337.8125 C200.77386719 338.56144531 200.86023438 339.31039063 200.94921875 340.08203125 C201 342 201 342 200 344 C200.66 344 201.32 344 202 344 C202.04898437 344.71285156 202.09796875 345.42570312 202.1484375 346.16015625 C202.6227458 352.60202266 202.6227458 352.60202266 204.0625 358.875 C204.95455572 361.84851905 205 363.94278926 205 367 C205.33 367.99 205.66 368.98 206 370 C206.97260588 372.91781765 207.08426537 374.96644664 207 378 C207.33 378.66 207.66 379.32 208 380 C208.17860936 381.39201895 208.31955707 382.78903387 208.4375 384.1875 C208.72898499 387.10234993 209.14600126 389.48362919 210 392.3125 C211.17238688 396.63567662 211.47343635 400.77156965 211.75390625 405.23046875 C211.96739616 407.63307739 212.38973085 409.68007979 213 412 C213.32879882 414.03910529 213.63954266 416.08116037 213.9375 418.125 C214.53618949 422.10739381 215.17917708 426.0574647 216 430 C217.47939834 437.15427791 218.4651599 444.38885335 219.53515625 451.61328125 C219.70917969 452.77214844 219.88320313 453.93101562 220.0625 455.125 C220.21847656 456.17945313 220.37445312 457.23390625 220.53515625 458.3203125 C220.94673997 461.08926763 220.94673997 461.08926763 222 464 C221.5625 466.1875 221.5625 466.1875 221 468 C221.66 468.33 222.32 468.66 223 469 C223.34375 470.85546875 223.34375 470.85546875 223.5 473.1875 C223.75053351 476.03284481 224.07195704 478.21137382 225 480.9375 C226.18211443 484.55772545 226.42358835 487.94390032 226.65625 491.73046875 C226.87778022 494.27583169 226.87778022 494.27583169 229 497 C229 499.33333333 229 501.66666667 229 504 C229.99438381 511.28824838 231.60895066 519.60895066 237 525 C239.59855733 525.8042208 239.59855733 525.8042208 242 526 C242 526.99 242 527.98 242 529 C241.34 529 240.68 529 240 529 C239.64421875 530.08087891 239.64421875 530.08087891 239.28125 531.18359375 C237.79911723 534.44157462 235.96304849 536.47549939 233.5 539.0625 C230.73826953 541.97218032 228.74082529 544.41752941 227 548 C225.4680435 550.11729272 223.91778506 552.19024794 222.3125 554.25 C221.86769287 554.8262915 221.42288574 555.40258301 220.96459961 555.99633789 C218.43517603 559.24754258 215.82831286 562.38210416 213.0625 565.4375 C210.3783982 568.42192089 208.737567 571.36690536 207 575 C206.13056499 576.10463172 205.2334605 577.18794528 204.3125 578.25 C201.78546669 580.6562756 201.78546669 580.6562756 202 583 C200.83238974 584.13326878 199.66340763 585.26515185 198.48828125 586.390625 C196.15011262 588.91903832 194.39748185 591.7946454 192.53125 594.6796875 C191.11128615 596.83136741 189.62341501 598.88672336 188.0625 600.9375 C183.86808189 606.45299468 179.89144974 612.12622911 176.08203125 617.9140625 C173.92496348 621.11121735 171.64606753 624.17971941 169.3125 627.25 C166.40487544 630.96788907 166.40487544 630.96788907 164 635 C163.34 635 162.68 635 162 635 C161.92652344 635.72058594 161.85304688 636.44117188 161.77734375 637.18359375 C160.79042218 640.75932467 159.12743517 642.40727912 156.5625 645.0625 C153.7745805 647.96676927 151.71836506 650.38311871 150 654 C148.6797629 655.87847688 147.32096007 657.7300864 145.9375 659.5625 C145.54264404 660.08553711 145.14778809 660.60857422 144.7409668 661.14746094 C141.29136557 665.68500806 137.68682214 670.08797375 134.0546875 674.48046875 C131.79492942 677.25146487 129.65348058 680.08924506 127.53515625 682.96875 C125.70904676 685.38497629 123.79223825 687.71803187 121.875 690.0625 C119.59115573 692.88805306 117.531369 695.61136746 115.8125 698.8125 C113.8777603 702.21497327 111.7676033 704.23624594 109 707 C106.69288689 709.6408442 104.47024191 712.34846708 102.25 715.0625 C101.32465454 716.18869751 101.32465454 716.18869751 100.38061523 717.33764648 C96.0841408 722.59612709 91.98071376 727.95870243 87.953125 733.42578125 C85.65234152 736.45821388 83.18299125 739.28638643 80.6328125 742.109375 C78.32276083 744.78417168 76.29108239 747.6401018 74.26171875 750.53125 C73.84535156 751.0159375 73.42898438 751.500625 73 752 C72.34 752 71.68 752 71 752 C70.75378906 752.72058594 70.50757813 753.44117188 70.25390625 754.18359375 C68.85727052 757.32058553 67.16706944 759.45543733 64.9375 762.0625 C61.63101976 766.00586246 58.44850669 769.99711709 55.375 774.125 C54.63894531 775.11242187 53.90289063 776.09984375 53.14453125 777.1171875 C51.74593019 778.99727417 50.34748524 780.87747699 48.94921875 782.7578125 C48.32660156 783.58023438 47.70398438 784.40265625 47.0625 785.25 C46.51722656 785.97703125 45.97195313 786.7040625 45.41015625 787.453125 C44.71212891 788.21882812 44.71212891 788.21882812 44 789 C43.34 789 42.68 789 42 789 C41.62875 789.8353125 41.62875 789.8353125 41.25 790.6875 C39.78224216 793.402852 37.93395084 795.59721259 36 798 C35.566875 798.78375 35.13375 799.5675 34.6875 800.375 C33.17545256 802.7270738 31.81521479 804.22196785 29.8125 806.125 C25.88731389 809.99806619 22.60109224 814.20900188 19.3125 818.625 C17.68572316 820.78647818 16.05773211 822.94702652 14.42822266 825.10644531 C13.19331862 826.74369586 11.96159698 828.38334585 10.73046875 830.0234375 C10.15941406 830.67570313 9.58835937 831.32796875 9 832 C8.34 832 7.68 832 7 832 C6.938125 832.556875 6.87625 833.11375 6.8125 833.6875 C5.66639359 836.94949518 3.45961261 838.59758769 1 841 C0.4225 841.9075 -0.155 842.815 -0.75 843.75 C-2.74910969 846.63760289 -4.68615538 848.75551676 -7.1875 851.1875 C-13.69959806 857.54989466 -19.2160247 864.66406249 -24.75 871.875 C-27.29222187 875.17460437 -30.01121607 878.09199401 -33 881 C-34.34423339 882.65788785 -35.67618483 884.32576317 -37 886 C-37.97501069 887.10783823 -38.9547936 888.21148251 -39.9375 889.3125 C-44.22227254 894.16423811 -48.25521476 899.21893723 -52.29272461 904.27661133 C-55.35057022 908.07946435 -58.47414834 911.62488177 -62 915 C-61.67 915.66 -61.34 916.32 -61 917 C-61.54269531 917.45890625 -62.08539063 917.9178125 -62.64453125 918.390625 C-63.35996094 919.00421875 -64.07539063 919.6178125 -64.8125 920.25 C-65.52019531 920.85328125 -66.22789062 921.4565625 -66.95703125 922.078125 C-68.92831705 923.93256594 -70.42730357 925.80615455 -72 928 C-72.825 928.94875 -73.65 929.8975 -74.5 930.875 C-78.13817187 935.07850184 -81.53939715 939.46329588 -84.953125 943.84912109 C-87.17350761 946.69696856 -89.41421695 949.51769301 -91.734375 952.28515625 C-93.96977499 954.89239547 -93.96977499 954.89239547 -95.6875 957.375 C-96.120625 957.91125 -96.55375 958.4475 -97 959 C-97.66 959 -98.32 959 -99 959 C-99.99 961.475 -99.99 961.475 -101 964 C-101.66 964 -102.32 964 -103 964 C-103 964.66 -103 965.32 -103 966 C-104.67721041 967.56958193 -106.46794114 968.9480525 -108.2734375 970.3671875 C-110.15466025 972.14626241 -110.86387893 973.69332995 -112 976 C-113.33386485 977.57739205 -114.71426931 979.11596056 -116.125 980.625 C-119.23710342 984.01594789 -122.21418881 987.44711887 -125.0625 991.0625 C-128.86204017 995.87977414 -132.89614728 1000.44199859 -137 1005 C-138.78225035 1007.01963253 -140.55625318 1009.04598066 -142.32421875 1011.078125 C-143.46524163 1012.38671068 -144.61401759 1013.68856719 -145.76953125 1014.984375 C-146.31996094 1015.60828125 -146.87039063 1016.2321875 -147.4375 1016.875 C-148.17806641 1017.70644531 -148.17806641 1017.70644531 -148.93359375 1018.5546875 C-150.19790607 1019.96886621 -150.19790607 1019.96886621 -150 1022 C-153.40682564 1024.27121709 -154.57797184 1024.24468887 -158.57299805 1024.22705078 C-159.71395432 1024.22689972 -160.85491058 1024.22674866 -162.03044128 1024.22659302 C-163.26176285 1024.21627045 -164.49308441 1024.20594788 -165.76171875 1024.1953125 C-167.02264847 1024.1924826 -168.28357819 1024.18965271 -169.5827179 1024.18673706 C-172.93160422 1024.17743125 -176.28021791 1024.15946703 -179.62902832 1024.1373291 C-183.04758347 1024.11685386 -186.4661668 1024.10773176 -189.88476562 1024.09765625 C-196.58991919 1024.0755818 -203.29494385 1024.04209362 -210 1024 C-209.0739224 1022.73864764 -208.14404836 1021.48008221 -207.21264648 1020.22265625 C-206.69524399 1019.52148682 -206.17784149 1018.82031738 -205.64476013 1018.09790039 C-203.0510791 1014.78964629 -200.08238393 1011.91476921 -197.0625 1009 C-192.80978293 1004.82174685 -188.67101548 1000.64004191 -184.80859375 996.09375 C-182.41186567 993.31913606 -179.92715911 990.62839622 -177.4375 987.9375 C-176.67675171 987.11499756 -176.67675171 987.11499756 -175.90063477 986.27587891 C-172.48446008 982.58896459 -169.05366601 978.91584585 -165.62011719 975.24511719 C-159.67673307 968.89073731 -153.79160652 962.49361944 -148 956 C-141.57497852 948.81909364 -135.06469322 941.72218494 -128.52294922 934.64794922 C-122.51887433 928.15107434 -116.5242559 921.65203929 -110.72265625 914.97265625 C-104.75774582 908.14208989 -98.60796409 901.47938689 -92.44921875 894.82421875 C-87.91929466 889.92450494 -83.45180112 884.97077247 -79 880 C-76.74696059 877.49531221 -74.49261767 874.99180166 -72.23828125 872.48828125 C-70.77560745 870.86223726 -69.31459667 869.23469538 -67.85546875 867.60546875 C-63.0974449 862.29877188 -58.28381761 857.04730524 -53.44213867 851.81713867 C-49.70750903 847.77856206 -46.02175765 843.6988349 -42.3515625 839.6015625 C-39.55067546 836.50290673 -36.71418951 833.43852054 -33.875 830.375 C-30.70532707 826.95364088 -27.5515448 823.5278835 -24.5 820 C-20.94182153 815.88639854 -17.2415788 811.90904725 -13.54516602 807.92016602 C-9.75098736 803.82287931 -6.00445872 799.68580657 -2.27734375 795.52734375 C0.29809845 792.66917719 2.89693631 789.8329703 5.5 787 C12.12925743 779.78116817 18.69790052 772.5135867 25.12890625 765.1171875 C27.34482959 762.60981704 29.61040908 760.15098411 31.875 757.6875 C35.14529473 754.10738788 38.28026617 750.47083763 41.3125 746.6875 C45.94421018 740.9451666 50.94823463 735.599357 55.9921875 730.22265625 C58.8492305 727.17461561 61.61843793 724.06139468 64.34765625 720.8984375 C66.26447425 718.69613597 68.22510695 716.53678058 70.1875 714.375 C73.82284521 710.35081482 77.36133312 706.25488227 80.875 702.125 C85.63708467 696.5320189 90.53478354 691.09006111 95.51953125 685.6953125 C101.32553896 679.47267069 101.32553896 679.47267069 106.5625 672.78125 C107.036875 672.1934375 107.51125 671.605625 108 671 C108.66 671 109.32 671 110 671 C110.27384521 670.40848145 110.54769043 669.81696289 110.82983398 669.20751953 C111.95874445 667.07782865 113.13884327 665.48586043 114.72265625 663.6796875 C115.25665039 663.06706055 115.79064453 662.45443359 116.34082031 661.82324219 C116.90897461 661.18032227 117.47712891 660.53740234 118.0625 659.875 C118.93986816 658.87194824 118.93986816 658.87194824 119.83496094 657.84863281 C123.10594508 654.11780685 126.4138408 650.42272748 129.75 646.75 C132.73863253 643.45707034 135.58383605 640.08683231 138.375 636.625 C142.53784391 631.46717055 146.96890751 626.63750475 151.51953125 621.82421875 C154.71679202 618.18387302 157.25221681 614.37592107 159.5625 610.125 C160.036875 609.42375 160.51125 608.7225 161 608 C161.99 608 162.98 608 164 608 C164.103125 607.360625 164.20625 606.72125 164.3125 606.0625 C164.539375 605.381875 164.76625 604.70125 165 604 C165.99 603.67 166.98 603.34 168 603 C168.14566406 602.39027344 168.29132813 601.78054688 168.44140625 601.15234375 C169.19529708 598.24749165 170.60068959 597.39222678 172.9375 595.5625 C176.22573569 592.83297339 177.52039827 591.01606185 179 587 C180.41789037 585.7799548 181.84274952 584.56612988 183.31640625 583.4140625 C186.60337127 580.65331694 189.23841608 577.27165259 192 574 C200.09482544 564.4308486 208.40410162 555.12274376 217 546 C216.4536792 545.74387939 215.9073584 545.48775879 215.34448242 545.22387695 C214.62623291 544.87800537 213.9079834 544.53213379 213.16796875 544.17578125 C212.45664795 543.83716064 211.74532715 543.49854004 211.01245117 543.1496582 C205.19396845 539.82571848 203.62358231 534.18036253 201.6875 528.16015625 C199.17747618 520.46471866 196.47529317 512.84963464 193.6875 505.25 C193.45044342 504.60246765 193.21338684 503.9549353 192.96914673 503.28778076 C189.76336846 494.54694321 186.39062755 485.90221047 182.70776367 477.34985352 C179.5406471 469.99315253 176.73385646 462.52687297 174 455 C173.70657715 454.19256348 173.4131543 453.38512695 173.11083984 452.55322266 C171.79799276 448.938304 170.48556409 445.32323833 169.17626953 441.70703125 C166.25709046 433.66098348 163.24664342 425.65069729 160.2265625 417.64208984 C157.50873383 410.41309173 154.90359961 403.15278446 152.38671875 395.8515625 C151.37381399 392.97270136 150.26804037 390.14215615 149.125 387.3125 C146.72933419 381.37881938 144.5211331 375.38032047 142.3125 369.375 C141.4287285 366.98164412 140.54460666 364.58841758 139.66015625 362.1953125 C139.21687988 360.99551758 138.77360352 359.79572266 138.31689453 358.55957031 C133.47960765 345.48436774 128.62957531 332.42176164 123.39453125 319.5 C121.60860887 315.017685 119.92737123 310.49983095 118.24926758 305.97631836 C116.57185279 301.47315106 114.80906434 297.01449426 113 292.5625 C110.94050761 287.48202119 109.04243558 282.36792451 107.25 277.1875 C103.56183177 266.56218012 99.46795457 256.09446032 95.40039062 245.60986328 C93.96765256 241.91661623 92.53806157 238.2221592 91.109375 234.52734375 C88.84188844 228.66436644 86.57210621 222.80228143 84.30123901 216.94061279 C82.03178486 211.08248688 79.76369831 205.22383232 77.49609375 199.36499023 C76.49647297 196.78232368 75.49644358 194.19981589 74.49609375 191.61743164 C72.25970659 185.84348577 70.02513142 180.06888025 67.80130005 174.29008484 C62.0540129 159.35584808 56.21028159 144.4652759 50.24282837 129.61755371 C45.68561324 118.27555707 41.22333981 106.89965767 36.8125 95.5 C30.5980102 79.44698935 24.15836647 63.49582126 17.58984375 47.58398438 C12.64595236 35.60144653 7.75494811 23.61671673 3.3125 11.4375 C2.97323486 10.50897217 2.63396973 9.58044434 2.28442383 8.6237793 C0 2.26214634 0 2.26214634 0 0 Z " fill="#43C174" transform="translate(510,0)"/>
<path d="M0 0 C31.35 0 62.7 0 95 0 C95.33 1.32 95.66 2.64 96 4 C97.17458309 6.09406579 98.41170253 8.15351432 99.6875 10.1875 C100.22769775 11.0535083 100.22769775 11.0535083 100.77880859 11.93701172 C102.83153402 15.21062134 104.94867731 18.4326752 107.125 21.625 C109.83776549 25.63580919 112.10742892 29.81574991 114.390625 34.08203125 C116.6797418 38.23244448 119.18743551 42.23441906 121.69140625 46.2578125 C123.86181819 49.75664171 125.9727553 53.28937293 128.08056641 56.82617188 C135.01712943 68.4640562 142.18620546 79.94957939 149.38623047 91.42578125 C156.54138986 102.83939708 163.40348334 114.41316239 170.19433594 126.04589844 C177.00625206 137.71293546 184.0032314 149.26101251 191.04345703 160.79150391 C194.17473366 165.92642248 197.2942714 171.06845693 200.4140625 176.21035767 C203.60817232 181.47430163 206.80433386 186.73700078 210 192 C210.92063232 193.5164209 210.92063232 193.5164209 211.85986328 195.06347656 C220.49884512 209.28930203 229.20069029 223.47558602 237.93261719 237.64453125 C241.45754447 243.36566973 244.9785544 249.08921809 248.5 254.8125 C249.7603988 256.86068808 251.02081487 258.90886553 252.28125 260.95703125 C252.8894458 261.94550049 253.4976416 262.93396973 254.12426758 263.95239258 C255.41783555 266.05412484 256.71197851 268.15550327 258.0065918 270.2565918 C262.29641324 277.22080139 266.56462496 284.19763634 270.8125 291.1875 C275.0344824 298.12941337 279.26064138 305.06868421 283.5 312 C284.84682305 314.20368847 286.19346132 316.40748975 287.54003906 318.61132812 C288.56761843 320.29257169 289.59565495 321.97353588 290.62402344 323.65429688 C300.35494078 339.56348632 309.90454051 355.57197669 319.31640625 371.671875 C324.63584679 380.75119104 330.03855947 389.72743811 335.82763672 398.51538086 C340.2573933 405.28713189 344.33756162 412.25490817 348.42553711 419.23657227 C351.72241392 424.86141734 355.10355424 430.39943276 358.63671875 435.87890625 C364.36950241 444.79839486 364.36950241 444.79839486 365 450 C365.99 450.33 366.98 450.66 368 451 C369.39453125 453.1171875 369.39453125 453.1171875 370.8125 455.875 C371.58980469 457.36193359 371.58980469 457.36193359 372.3828125 458.87890625 C372.91648437 459.90886719 373.45015625 460.93882812 374 462 C375.05812371 463.93989348 376.12046084 465.87749614 377.1875 467.8125 C378.73899368 470.64548716 380.2231943 473.46355738 381.625 476.375 C383.12565871 479.2398939 384.95203642 481.50404439 387 484 C389.41021183 487.52923875 390 488.59440806 390 493 C390.66 493 391.32 493 392 493 C393.4606285 495.64738916 394 496.89448334 394 500 C394.66 500 395.32 500 396 500 C396.4846875 500.85980469 396.969375 501.71960938 397.46875 502.60546875 C400.86710707 508.60806215 404.30998628 514.56924844 407.9375 520.4375 C408.58589844 521.48679687 409.23429688 522.53609375 409.90234375 523.6171875 C411.00805671 525.40032981 412.11448094 527.18304195 413.22705078 528.96191406 C414.49304119 530.99040347 415.7472185 533.0258331 417 535.0625 C417.59735962 536.00984009 417.59735962 536.00984009 418.20678711 536.97631836 C420.27667249 540.36244792 421 541.92002416 421 546 C421.99 546.33 422.98 546.66 424 547 C425.24609375 548.85546875 425.24609375 548.85546875 426.4375 551.1875 C426.870625 551.99703125 427.30375 552.8065625 427.75 553.640625 C428.1625 554.41921875 428.575 555.1978125 429 556 C431.64617782 560.76591842 431.64617782 560.76591842 436.25 563.375 C437.1575 563.58125 438.065 563.7875 439 564 C439 564.99 439 565.98 439 567 C438.34 567 437.68 567 437 567 C436.7525 567.598125 436.505 568.19625 436.25 568.8125 C434.81927475 571.31626919 433.4308418 572.48072388 431 574 C430.34 574 429.68 574 429 574 C429 574.66 429 575.32 429 576 C427.56580496 577.2340748 426.12554257 578.46215372 424.6484375 579.64453125 C422.26598366 581.6035632 420.15185707 583.79296711 418 586 C417.154375 586.804375 416.30875 587.60875 415.4375 588.4375 C412.909559 590.93611173 412.909559 590.93611173 411.0625 594 C408.7794187 597.32084553 406.14291647 599.55882735 403 602 C401.78323111 602.96866417 400.5750336 603.94817894 399.375 604.9375 C398.82585937 605.37964844 398.27671875 605.82179688 397.7109375 606.27734375 C395.82306784 608.0633195 395.82306784 608.0633195 394.13671875 610.83984375 C391.50262735 614.73560233 388.35313071 617.77860895 384.97851562 621.03125 C382.92868458 623.02750912 381.03274545 624.95494597 379.34765625 627.2734375 C378 629 378 629 375 630 C374.57420654 630.70979004 374.14841309 631.41958008 373.7097168 632.15087891 C371.49393329 635.84332407 368.69501891 638.57236603 365.64453125 641.5859375 C364.71383064 642.51595078 364.71383064 642.51595078 363.764328 643.4647522 C362.45291828 644.77314898 361.13908711 646.07912267 359.82299805 647.3828125 C357.83135153 649.35632016 355.84770672 651.33759367 353.86523438 653.3203125 C348.3113935 658.85814 342.77117476 664.34232687 336.79174805 669.42431641 C333.1839221 672.59707954 329.86484719 676.07386233 326.5 679.5 C321.76647934 684.31974144 316.97904374 688.95872589 311.85742188 693.36523438 C309.10776361 695.78528061 306.55563971 698.37841949 304 701 C300.81944724 704.22410164 297.65280907 707.39076882 294.1875 710.3125 C289.3891342 714.38658417 285.03325823 718.91648002 280.62963867 723.4074707 C277.60684045 726.47179197 274.55622893 729.42419153 271.28125 732.21875 C265.55030515 737.16036976 260.31258229 742.6185509 255 748 C243.42714605 759.72287243 243.42714605 759.72287243 239.15625 763.34375 C232.55656769 768.9752971 226.59771439 775.3380186 220.5 781.5 C217.95093376 784.07593219 215.39838646 786.64834314 212.84375 789.21875 C212.27579712 789.79500122 211.70784424 790.37125244 211.12268066 790.96496582 C208.18347735 793.92168855 205.18257978 796.74659782 202.02734375 799.47265625 C198.07792453 802.8881589 194.3845939 806.50317519 190.71875 810.21875 C190.06096558 810.88032104 189.40318115 811.54189209 188.72546387 812.22351074 C186.64782726 814.31322735 184.57349373 816.40617315 182.5 818.5 C179.7634185 821.263417 177.02337737 824.02333722 174.28125 826.78125 C173.66954956 827.40124878 173.05784912 828.02124756 172.4276123 828.66003418 C168.74649614 832.36161347 164.93277928 835.83133904 160.98336792 839.24371338 C157.72761079 842.12670983 154.67456353 845.20234172 151.61328125 848.2890625 C150.94838181 848.95537689 150.28348236 849.62169128 149.59843445 850.30819702 C147.50073241 852.4114317 145.40655144 854.5181313 143.3125 856.625 C141.89802104 858.04450462 140.48330932 859.46377735 139.06835938 860.8828125 C136.47292421 863.48636335 133.87882537 866.09122911 131.28637695 868.69775391 C130.72090652 869.26554565 130.1554361 869.8333374 129.5728302 870.41833496 C128.18662246 871.81232925 126.80487454 873.21075542 125.42382812 874.60986328 C123.25740898 876.74616902 121.04199001 878.81107727 118.78742981 880.85369873 C112.96291619 886.13564444 107.33802945 891.59000075 101.80078125 897.171875 C101.10620819 897.87195679 100.41163513 898.57203857 99.6960144 899.29333496 C96.82958618 902.1874208 93.96715975 905.08540468 91.10864258 907.98730469 C88.98946879 910.13644564 86.86430185 912.27951025 84.73828125 914.421875 C84.08942459 915.08419128 83.44056793 915.74650757 82.77204895 916.42889404 C82.17349594 917.03082581 81.57494293 917.63275757 80.95825195 918.25292969 C80.43342728 918.78521179 79.9086026 919.3174939 79.36787415 919.86590576 C78 921 78 921 76 921 C76 921.66 76 922.32 76 923 C74.75537109 924.21899414 74.75537109 924.21899414 72.8984375 925.72265625 C68.77621274 929.22627478 64.96382874 932.96431244 61.1640625 936.80859375 C60.55463806 937.42368805 59.94521362 938.03878235 59.31732178 938.67251587 C56.76548339 941.25146261 54.21784592 943.83448889 51.67431641 946.42163086 C49.80020162 948.32575984 47.92006678 950.22377397 46.0390625 952.12109375 C45.17349228 953.00685341 45.17349228 953.00685341 44.29043579 953.9105072 C42.89778729 955.31195732 41.45334043 956.66159278 40 958 C39.34 958 38.68 958 38 958 C37.67 958.99 37.34 959.98 37 961 C35.58493042 962.39259338 35.58493042 962.39259338 33.70654297 963.92016602 C28.30881646 968.50446776 23.37661334 973.52676665 18.39990616 978.55549431 C16.66246613 980.31052262 14.92133565 982.06181361 13.1791687 983.81214905 C8.23262553 988.78299383 3.29198203 993.75967364 -1.64453125 998.74047852 C-4.67751586 1001.80016337 -7.71528828 1004.85502543 -10.75610733 1007.90692329 C-11.91187499 1009.0689091 -13.06574039 1010.23279015 -14.21767807 1011.39857292 C-15.81885994 1013.01885963 -17.42600509 1014.63299512 -19.03466797 1016.24584961 C-19.94763641 1017.16627548 -20.86060486 1018.08670135 -21.80123901 1019.03501892 C-24 1021 -24 1021 -26 1021 C-26.33 1021.99 -26.66 1022.98 -27 1024 C-55.05 1024 -83.1 1024 -112 1024 C-105.02009808 1015.85678109 -98.06154303 1008.91430029 -89.7109375 1002.2109375 C-87.30014145 1000.24478395 -84.986744 998.21910699 -82.6875 996.125 C-78.32101794 992.19045411 -73.72132189 988.60021118 -69.08276367 984.99658203 C-65.32479598 982.06846711 -61.71379178 979.03839304 -58.16796875 975.85546875 C-55.29906315 973.4000991 -52.30196867 971.11758868 -49.3125 968.8125 C-43.8145477 964.55918612 -38.67778572 960.04300309 -33.62109375 955.27734375 C-29.70492292 951.60113436 -25.62599595 948.22819683 -21.390625 944.921875 C-18.85992791 942.88739303 -16.46156001 940.75032203 -14.0625 938.5625 C-8.87113461 933.83349059 -3.4641965 929.40835035 2 925 C8.13949633 920.04435274 14.18128262 915.00027939 20.125 909.8125 C26.2563675 904.4623188 32.49443626 899.25751622 38.79003906 894.10205078 C43.72536216 890.05861269 48.61199061 885.96347817 53.47143555 881.8293457 C56.76239513 879.03412144 60.0859694 876.28470389 63.4375 873.5625 C67.62824093 870.15524542 71.72915302 866.65894711 75.8125 863.125 C81.02956976 858.61668581 86.36629801 854.30579399 91.81298828 850.07910156 C96.41310856 846.49650158 100.87775564 842.7759236 105.31005859 838.98852539 C108.73017722 836.06693431 112.19009518 833.2043612 115.6875 830.375 C119.21536923 827.50573443 122.63719922 824.56094307 126 821.5 C131.17174902 816.7939535 136.56060048 812.39130144 142 808 C148.44810928 802.76267106 154.83630613 797.46376385 161.16577148 792.08422852 C164.5591538 789.20479732 167.98249917 786.36810273 171.4375 783.5625 C175.70744869 780.08927643 179.89499576 776.53202836 184.0625 772.9375 C187.96604911 769.57063649 191.88640516 766.25223248 195.9375 763.0625 C200.23964616 759.66756094 204.37285144 756.1032611 208.5 752.5 C213.45178716 748.17865298 218.45101622 743.95680209 223.61328125 739.88671875 C228.12553597 736.31974816 232.55345343 732.64828856 237 729 C238.83310162 727.49971683 240.66643427 725.99971592 242.5 724.5 C243.85351562 723.39205078 243.85351562 723.39205078 245.234375 722.26171875 C247.1184081 720.72096287 249.00388412 719.1819701 250.890625 717.64453125 C251.83421875 716.87496094 252.7778125 716.10539063 253.75 715.3125 C254.65105469 714.57773437 255.55210937 713.84296875 256.48046875 713.0859375 C258.71042152 711.23974404 260.89156546 709.3522373 263.0625 707.4375 C266 705 266 705 268 705 C268 704.34 268 703.68 268 703 C269.36328125 701.80859375 269.36328125 701.80859375 271.3125 700.4375 C284.8022876 690.63318852 297.37578954 679.40598542 309.6484375 668.12890625 C311.60206807 666.36025399 313.58077009 664.66154232 315.625 663 C318.05363734 661.22280125 318.05363734 661.22280125 319 659 C319.7425 658.566875 320.485 658.13375 321.25 657.6875 C324.34202731 655.79011961 326.50139484 653.62353542 329 651 C333.66666667 646.11111111 333.66666667 646.11111111 337 645 C337.33 644.34 337.66 643.68 338 643 C338.66 643 339.32 643 340 643 C340 642.34 340 641.68 340 641 C341.65863085 639.98672734 343.3272986 638.98987261 345 638 C346.90999808 636.37355906 348.78395898 634.70410409 350.625 633 C351.56601562 632.13375 352.50703125 631.2675 353.4765625 630.375 C354.86990992 629.06361419 356.25337452 627.74040006 357.58984375 626.37109375 C359.25942262 624.7477636 361.0515031 623.42722329 362.9375 622.0625 C365.28553555 620.33486283 367.30537255 618.69462745 369.375 616.625 C369.91125 616.08875 370.4475 615.5525 371 615 C371.66 615 372.32 615 373 615 C373 614.01 373 613.02 373 612 C373.66 612 374.32 612 375 612 C375 611.34 375 610.68 375 610 C375.99 610 376.98 610 378 610 C378.66 609.01 379.32 608.02 380 607 C380.99 606.67 381.98 606.34 383 606 C383.5775 605.4225 384.155 604.845 384.75 604.25 C387.15938865 601.84061135 389.693568 600.04329689 392.51171875 598.1484375 C394.15493091 597.05255901 394.15493091 597.05255901 395 595 C395.7425 594.566875 396.485 594.13375 397.25 593.6875 C400.36941528 591.77331335 402.62422786 589.78304736 405 587 C405 585.68 405 584.36 405 583 C408 582 408 582 411 583 C413.59227989 581.34074425 413.59227989 581.34074425 416.1875 579.0625 C417.08855469 578.31097656 417.98960937 577.55945313 418.91796875 576.78515625 C419.60503906 576.19605469 420.29210937 575.60695313 421 575 C420.2575 574.2575 419.515 573.515 418.75 572.75 C417.8425 571.8425 416.935 570.935 416 570 C415.319375 569.360625 414.63875 568.72125 413.9375 568.0625 C411.60636633 565.58097061 409.88553889 562.82830833 408 560 C407.34 559.67 406.68 559.34 406 559 C405.05496918 557.37994717 404.11570979 555.75615724 403.2109375 554.11328125 C400.57109931 549.50633782 397.7641817 544.7641817 394 541 C393.29289322 539.35008418 392.62056011 537.68437744 392 536 C391.34 536 390.68 536 390 536 C389.68546875 535.39671875 389.3709375 534.7934375 389.046875 534.171875 C386.49853174 529.27200378 386.49853174 529.27200378 383 525.0625 C380.90425431 522.90126226 380.02366957 521.14617061 378.75 518.4375 C375.85942944 512.40884826 372.01510881 507.31909828 368 502 C366.53865633 499.98134249 365.08023427 497.96056616 363.625 495.9375 C361.39677303 492.8437267 359.2450757 490.14546965 356.4375 487.5625 C355 486 355 486 354 483 C353.34 482.34 352.68 481.68 352 481 C349.01806529 477.2524334 346.23732758 473.34983375 343.48828125 469.4296875 C343.04742188 468.80352539 342.6065625 468.17736328 342.15234375 467.53222656 C341.26874101 466.27444512 340.38971875 465.01343163 339.515625 463.74902344 C337.49729942 460.87812929 335.95363694 458.96909129 333 457 C332.11440094 455.43317089 331.23429227 453.86297339 330.3828125 452.27734375 C327.87152297 448.14151947 324.79582422 444.38914823 321.828125 440.57421875 C320 438 320 438 320 436 C319.01 435.67 318.02 435.34 317 435 C315.8125 431.9375 315.8125 431.9375 315 429 C314.34 429 313.68 429 313 429 C312.525625 428.0925 312.05125 427.185 311.5625 426.25 C308.90312084 421.58903864 305.63681071 417.41238164 302.38671875 413.15234375 C299.38449098 409.18704455 296.50309264 405.14073082 293.62890625 401.08203125 C292.16443248 398.90351559 292.16443248 398.90351559 290 398 C289 396.33333333 288 394.66666667 287 393 C286.34 392.67 285.68 392.34 285 392 C284.11029526 390.39168759 283.22248055 388.78230328 282.34375 387.16796875 C280.16705947 383.656157 277.47033776 380.57817252 274.8046875 377.4296875 C273.01011057 375.01361207 271.97781696 372.832645 271 370 C270.34 370 269.68 370 269 370 C268.03263243 368.62048686 267.07567685 367.23247032 266.17333984 365.80957031 C264.05543651 362.54325747 261.65964791 359.47851783 259.3125 356.375 C258.23566645 354.94532051 257.15884361 353.51563295 256.08203125 352.0859375 C255.2923999 351.03937988 255.2923999 351.03937988 254.48681641 349.97167969 C252.48598684 347.31836285 250.49273066 344.65940289 248.5 342 C247.79746094 341.06414062 247.09492188 340.12828125 246.37109375 339.1640625 C244.52672509 336.70287862 242.68612699 334.23902188 240.84765625 331.7734375 C240.30367188 331.04511719 239.7596875 330.31679688 239.19921875 329.56640625 C238.12630305 328.12987711 237.05464256 326.69240943 235.984375 325.25390625 C235.49582031 324.60035156 235.00726563 323.94679688 234.50390625 323.2734375 C234.06892822 322.68997559 233.6339502 322.10651367 233.18579102 321.50537109 C231.93413939 319.85552396 231.93413939 319.85552396 230 318 C229.16968585 316.76176147 228.36029908 315.50943356 227.5625 314.25 C224.78751938 310.02985832 221.76478241 306.07465117 218.625 302.125 C214.72527049 297.21483272 210.9415396 292.2530592 207.28125 287.16015625 C204.27933221 283.00167766 201.23302379 278.87660117 198.1875 274.75 C190.82725633 264.76972563 183.46941251 254.78764684 176.1875 244.75 C171.94018712 238.90124128 167.64756058 233.08609816 163.35766602 227.26855469 C159.60787713 222.18310758 155.86189793 217.09492842 152.125 212 C151.45162598 211.08226807 151.45162598 211.08226807 150.76464844 210.14599609 C148.14056524 206.56637258 145.53540429 202.97369376 142.9375 199.375 C140.08726191 195.44723288 137.15893728 191.58642232 134.1875 187.75 C129.13387336 181.22329082 124.25210289 174.57810477 119.39111328 167.90722656 C117.10049696 164.7667747 114.79977359 161.63374843 112.5 158.5 C111.58719726 157.25523937 110.6744369 156.01044766 109.76171875 154.765625 C107.88991589 152.21310607 106.01744244 149.6610808 104.14453125 147.109375 C100.14827242 141.66386305 96.15330977 136.21775475 92.1875 130.75 C89.18294236 126.61106855 86.15231206 122.49203754 83.11425781 118.37768555 C76.21821818 109.03813051 69.39048549 99.65238862 62.60888672 90.22949219 C60.99641661 87.99503436 59.37633017 85.76630111 57.75390625 83.5390625 C51.62951502 75.11986261 45.66363528 66.61684424 39.82666016 57.99584961 C35.68404633 51.91308012 31.3479481 46.00057928 26.86889648 40.16162109 C24.35186141 36.86987868 22.09551646 33.58247197 20 30 C18.61995639 27.94762745 17.22273919 25.90674283 15.8125 23.875 C15.42392822 23.31385498 15.03535645 22.75270996 14.63500977 22.17456055 C11.33197695 17.42507099 7.90797475 12.77026658 4.43359375 8.14453125 C3 6 3 6 3 4 C2.34 4 1.68 4 1 4 C0.505 2.02 0.505 2.02 0 0 Z " fill="#026C3A" transform="translate(259,0)"/>
<path d="M0 0 C24.75 0 49.5 0 75 0 C87.38669065 31.99895084 87.38669065 31.99895084 91.78515625 43.8046875 C93.97875835 49.57435475 96.3956672 55.24577238 98.82096863 60.92111206 C103.97559288 72.98880204 108.86099103 85.14596067 113.6105957 97.3782959 C115.57333761 102.43276635 117.54444146 107.48397313 119.515625 112.53515625 C119.90339111 113.5291745 120.29115723 114.52319275 120.69067383 115.54733276 C123.91385397 123.80051565 127.19282873 132.03018113 130.5 140.25 C135.29771144 152.18978668 139.95316706 164.17861566 144.54541016 176.19873047 C147.19046769 183.11652009 149.85456132 190.02701984 152.51452637 196.93908691 C154.14420755 201.17407781 155.7733167 205.4092887 157.40234375 209.64453125 C157.71595856 210.45985321 158.02957336 211.27517517 158.35269165 212.11520386 C160.13401138 216.74670574 161.91363853 221.37885196 163.69140625 226.01171875 C167.27901369 235.35776967 170.8791109 244.69868697 174.51171875 254.02734375 C174.81993057 254.81898422 175.1281424 255.61062469 175.44569397 256.42625427 C176.96355468 260.3241123 178.48274931 264.22144241 180.00415039 268.11791992 C182.7957736 275.27501514 185.5615838 282.44063486 188.26171875 289.6328125 C188.50041687 290.26820953 188.73911499 290.90360657 188.98504639 291.55825806 C190.56032568 295.77241255 192.07240413 300.0052338 193.5625 304.25 C195.39325548 309.41203523 197.41488555 314.44830748 199.5546875 319.48828125 C202.54986133 326.76574415 205.28285036 334.14778429 208.05957031 341.51074219 C208.85490755 343.61594949 209.65597264 345.71877518 210.4609375 347.8203125 C212.93916978 354.33820665 215.32152491 360.88462335 217.640625 367.4609375 C217.87895554 368.13607391 218.11728607 368.81121033 218.36283875 369.50680542 C219.56517799 372.9146996 220.76322624 376.32400795 221.9543457 379.73583984 C224.32526985 386.49577097 226.85882411 393.14355907 229.66235352 399.73828125 C232.22051881 405.9761145 234.48195947 412.32745184 236.78955078 418.66131592 C242.36861435 433.96847341 248.10559475 449.20445698 253.99511719 464.39501953 C255.39554203 468.02537256 256.76533517 471.66671837 258.125 475.3125 C260.35180019 481.27982412 262.60610005 487.23605526 264.875 493.1875 C265.20927002 494.0655127 265.54354004 494.94352539 265.88793945 495.84814453 C267.64300257 500.45481843 269.40687906 505.05788087 271.18359375 509.65625 C271.54018066 510.58284424 271.89676758 511.50943848 272.26416016 512.46411133 C272.93919366 514.21772071 273.61703403 515.97025352 274.29833984 517.72143555 C276.21139603 522.70084752 277.86318921 527.6941206 279.31469727 532.82788086 C280.65930706 537.08972388 282.28101986 540.04831549 286.2578125 542.25 C288.48209927 543.25406675 290.70680039 544.16700014 293 545 C288.58954096 550.22291202 284.02336465 555.28407949 279.4140625 560.33203125 C276.54458218 563.50331775 273.75913152 566.73260741 271 570 C271 566.79604584 271.74335022 564.90600261 273 562 C272.01 561.67 271.02 561.34 270 561 C271 559 271 559 274 558 C275.66710346 556.50014391 275.66710346 556.50014391 277 555 C276.14019531 554.56816406 275.28039062 554.13632812 274.39453125 553.69140625 C269.49021444 550.41849897 267.32157203 545.03834933 264.6875 539.9375 C264.15060547 538.93138672 263.61371094 537.92527344 263.06054688 536.88867188 C259.20076885 529.60230655 259.20076885 529.60230655 258 526 C257.34 525.67 256.68 525.34 256 525 C255.29552702 523.16664678 254.59963269 521.32963805 253.94189453 519.47900391 C252.08070585 514.5804788 249.71691865 509.90203134 247.4375 505.1875 C246.64013428 503.5319812 246.64013428 503.5319812 245.82666016 501.84301758 C242.24460867 494.45162708 238.52305529 487.15034831 234.65673828 479.90429688 C230.31175179 471.75548332 226.20629968 463.49146678 222.10351562 455.21875 C220.60296087 452.20170539 219.08098732 449.19555106 217.5625 446.1875 C211.47935959 434.02121917 205.65715045 421.71994372 199.90527344 409.39404297 C199.5446582 408.62463379 199.18404297 407.85522461 198.8125 407.0625 C198.39578033 406.17139275 198.39578033 406.17139275 197.97064209 405.26228333 C196.12150521 401.32633669 194.22310953 397.42222875 192.25608826 393.54394531 C187.79541292 384.74734 183.61661279 375.83376138 179.51782227 366.86376953 C178.43757412 364.50016219 177.35290598 362.13862224 176.26757812 359.77734375 C172.55635593 351.68741411 168.89738761 343.57903815 165.38352966 335.40112305 C162.91243236 329.6833017 160.12664558 324.14655797 157.30078125 318.59765625 C154.4472758 312.94026048 151.73078979 307.21733846 149 301.5 C145.38091227 293.92862797 141.72190995 286.38450927 137.9375 278.89453125 C134.80362974 272.66564037 131.81907163 266.36697675 128.85107422 260.05761719 C125.38591269 252.72014129 121.75422638 245.46848242 118.11279297 238.2175293 C116.18527105 234.37644075 114.26498123 230.53173772 112.34375 226.6875 C111.54039725 225.08071283 110.7370116 223.47394212 109.93359375 221.8671875 C105.06640625 212.1328125 105.06640625 212.1328125 103.85835266 209.71669006 C103.05708923 208.11417338 102.25580954 206.51166483 101.45451355 204.90916443 C99.63767443 201.27565006 97.82101448 197.64204668 96.00512695 194.00805664 C92.72820724 187.45094844 89.44704393 180.89600439 86.15927124 174.34432983 C84.30542183 170.64934307 82.4532853 166.95349893 80.60131836 163.25756836 C79.66487263 161.38968981 78.72770756 159.52217171 77.78979492 157.6550293 C72.6964676 147.51389063 67.66569543 137.35054087 62.80078125 127.09765625 C58.41414674 117.86329905 53.89245902 108.70197314 49.3125 99.5625 C48.97573557 98.8904056 48.63897114 98.2183112 48.29200172 97.5258503 C45.86420165 92.68245944 43.4325106 87.84102639 41 83 C38.22655764 77.48047313 35.4547274 71.96014584 32.6875 66.4375 C32.35378073 65.77156137 32.02006145 65.10562275 31.67622948 64.41950417 C26.4193129 53.92082802 21.288344 43.36735731 16.26489258 32.75463867 C12.95884701 25.77836895 9.47737372 18.89202928 6 12 C4.02 8.04 2.04 4.08 0 0 Z M268 562 C270 563 270 563 270 563 Z " fill="#29AC65" transform="translate(435,0)"/>
<path d="M0 0 C22.77 0 45.54 0 69 0 C70.27329293 7.00311112 71.45867017 13.92169184 72.4375 20.95703125 C73.15560265 24.84176712 74.23090493 28.46180986 76 32 C75.66666667 33.33333333 75.33333333 34.66666667 75 36 C75.33 36.66 75.66 37.32 76 38 C75.5625 40.125 75.5625 40.125 75 42 C75.66 42 76.32 42 77 42 C76.979375 42.721875 76.95875 43.44375 76.9375 44.1875 C76.99879075 46.94558382 77.44335335 49.30361943 78 52 C78.29644463 53.83256682 78.58780164 55.66596138 78.875 57.5 C79.6025842 61.94756358 80.50946698 66.30585531 81.5625 70.6875 C82.6213926 75.13059208 83.41572102 79.44878954 83.7890625 84 C84.12307842 87.16696576 84.84041311 90.24694934 85.5 93.359375 C86.35125209 97.42942407 87.0818013 101.41752133 87.4375 105.5625 C87.74267911 108.77818362 88.43984901 111.47303915 89.5625 114.5 C91.00250117 118.47913366 91.19176981 121.81367565 91.046875 126.015625 C90.98844121 128.48932214 91.40027292 130.6010917 92 133 C95.68725361 148.62549277 95.68725361 148.62549277 94 152 C94.66 152 95.32 152 96 152 C96.07347656 152.97839844 96.07347656 152.97839844 96.1484375 153.9765625 C96.57678393 158.9837846 97.37385692 163.2299803 99 168 C99 170 99 172 99 174 C99.67273278 177.74248429 100.53116752 181.44499042 101.62890625 185.0859375 C102 187 102 187 101 190 C101.66 190 102.32 190 103 190 C104.125 197.75 104.125 197.75 103 200 C103.66 200.33 104.32 200.66 105 201 C105.38218767 202.65614657 105.71395102 204.32457024 106 206 C106.33 206.66 106.66 207.32 107 208 C106.34 208 105.68 208 105 208 C105.22816406 208.75925781 105.45632813 209.51851562 105.69140625 210.30078125 C105.97886719 211.29464844 106.26632812 212.28851563 106.5625 213.3125 C106.85253906 214.29863281 107.14257812 215.28476563 107.44140625 216.30078125 C108 219 108 219 107 222 C107.66 222.33 108.32 222.66 109 223 C109.27002135 225.12641811 109.52783322 227.25530475 109.71484375 229.390625 C110.00478726 232.04380675 110.49755598 234.58006606 111.0625 237.1875 C111.83581303 240.85930483 112.19840012 244.23039775 112 248 C112.66 248 113.32 248 114 248 C113.95875 248.86625 113.9175 249.7325 113.875 250.625 C113.83629381 253.95112617 113.83629381 253.95112617 114.9375 256.75 C116.12257032 260.37492098 116.40288525 263.68264666 116.7109375 267.46484375 C116.9871407 269.88722048 117.47677551 272.09092733 118.125 274.4375 C119 278 119 278 118 281 C118.66 281 119.32 281 120 281 C120.04898438 281.64066406 120.09796875 282.28132813 120.1484375 282.94140625 C120.60448882 288.21744827 121.51738336 292.90350531 123 298 C123.31664851 300.3259983 123.55356268 302.64567041 123.75390625 304.984375 C123.95685273 307.20209651 123.95685273 307.20209651 125 310 C125.42963834 313.27824883 125.80947514 316.55658564 126.16210938 319.84375 C126.68939412 324.40497737 127.68761933 328.58515142 129 333 C129.27775225 334.59647165 129.51536627 336.20121541 129.6875 337.8125 C129.77386719 338.56144531 129.86023438 339.31039063 129.94921875 340.08203125 C130 342 130 342 129 344 C129.66 344 130.32 344 131 344 C131.07347656 345.06927734 131.07347656 345.06927734 131.1484375 346.16015625 C131.6227458 352.60202266 131.6227458 352.60202266 133.0625 358.875 C133.95455572 361.84851905 134 363.94278926 134 367 C134.33 367.99 134.66 368.98 135 370 C135.97260588 372.91781765 136.08426537 374.96644664 136 378 C136.33 378.66 136.66 379.32 137 380 C137.17860936 381.39201895 137.31955707 382.78903387 137.4375 384.1875 C137.72898499 387.10234993 138.14600126 389.48362919 139 392.3125 C140.17238688 396.63567662 140.47343635 400.77156965 140.75390625 405.23046875 C140.96739616 407.63307739 141.38973085 409.68007979 142 412 C142.32879882 414.03910529 142.63954266 416.08116037 142.9375 418.125 C143.53618949 422.10739381 144.17917708 426.0574647 145 430 C146.47939834 437.15427791 147.4651599 444.38885335 148.53515625 451.61328125 C148.70917969 452.77214844 148.88320313 453.93101562 149.0625 455.125 C149.29646484 456.70667969 149.29646484 456.70667969 149.53515625 458.3203125 C149.94673997 461.08926763 149.94673997 461.08926763 151 464 C150.5625 466.1875 150.5625 466.1875 150 468 C150.66 468.33 151.32 468.66 152 469 C152.34375 470.85546875 152.34375 470.85546875 152.5 473.1875 C152.75053351 476.03284481 153.07195704 478.21137382 154 480.9375 C155.18211443 484.55772545 155.42358835 487.94390032 155.65625 491.73046875 C155.87778022 494.27583169 155.87778022 494.27583169 158 497 C158 499.33333333 158 501.66666667 158 504 C158.99438381 511.28824838 160.60895066 519.60895066 166 525 C168.59855733 525.8042208 168.59855733 525.8042208 171 526 C171 526.99 171 527.98 171 529 C170.34 529 169.68 529 169 529 C168.75507812 529.72574219 168.51015625 530.45148437 168.2578125 531.19921875 C166.85948793 534.31287937 165.18703779 536.31400755 162.875 538.8125 C162.15054688 539.60269531 161.42609375 540.39289062 160.6796875 541.20703125 C159.84824219 542.09455078 159.84824219 542.09455078 159 543 C157.02 541.515 157.02 541.515 155 540 C156.98 537.525 156.98 537.525 159 535 C158.29875 535.144375 157.5975 535.28875 156.875 535.4375 C153.04922333 534.85531659 151.78291805 533.49109952 149.48413086 530.45629883 C147.81799799 527.69877903 147.05047822 525.25336308 146.21875 522.140625 C145.7091272 520.27639893 145.7091272 520.27639893 145.18920898 518.37451172 C145.00180145 517.68081482 144.81439392 516.98711792 144.62130737 516.2723999 C143.6938082 512.88011918 142.72317627 509.50045493 141.75563049 506.11941528 C140.63744517 502.21099495 139.52841205 498.29999352 138.41870117 494.38916016 C137.85085756 492.39013043 137.28185916 490.39142835 136.71166992 488.39306641 C133.51836474 477.19853767 130.44011726 465.9944932 127.65907288 454.68994141 C126.22934328 448.87990789 124.68940436 443.11546531 123 437.375 C122.4889617 435.61346147 121.97855589 433.85173934 121.46875 432.08984375 C121.22125 431.23632324 120.97375 430.38280273 120.71875 429.50341797 C119.61433791 425.65673266 118.55842547 421.79703696 117.5 417.9375 C115.50236619 410.67072159 113.36328009 403.45149233 111.14257812 396.24975586 C109.8605546 392.04937262 108.6947301 387.84461936 107.65234375 383.578125 C105.76276165 375.89390596 103.5805827 368.29549924 101.41564941 360.68539429 C100.17756036 356.3318975 98.94624046 351.97648738 97.71484375 347.62109375 C97.4748465 346.77253311 97.23484924 345.92397247 96.98757935 345.04969788 C95.21321741 338.77002199 93.46193892 332.48451563 91.75 326.1875 C91.52393066 325.35613525 91.29786133 324.52477051 91.06494141 323.66821289 C89.80592694 319.01964868 88.56573213 314.36628004 87.33203125 309.7109375 C87.03780273 308.60596924 86.74357422 307.50100098 86.44042969 306.36254883 C85.88917985 304.29045648 85.34116158 302.21749889 84.79785156 300.14331055 C82.93311466 293.13678527 80.85267728 286.21369465 78.71875 279.28515625 C74.85759044 266.71991427 71.37827734 254.06066538 67.9375 241.375 C66.76088624 237.04899526 65.58227526 232.72353844 64.40234375 228.3984375 C64.11663513 227.35057068 63.83092651 226.30270386 63.53656006 225.2230835 C61.19607005 216.66309555 58.77163673 208.12868815 56.31958008 199.60009766 C54.34955604 192.74749703 52.44642158 185.8763224 50.546875 179.00390625 C49.17295107 174.06676838 47.75036821 169.15355698 46.22265625 164.26171875 C43.32171809 154.911622 40.67357591 145.48768836 37.99145508 136.07299805 C37.06937904 132.83664445 36.14521232 129.60089365 35.22070312 126.36523438 C32.37715541 116.40425634 29.55231715 106.43875948 26.79025269 96.4548645 C25.33847444 91.20880975 23.86783819 85.96831327 22.38671875 80.73046875 C22.16787521 79.95645721 21.94903168 79.18244568 21.72355652 78.38497925 C21.27527061 76.79993655 20.82691056 75.21491483 20.378479 73.62991333 C16.41054196 59.60438972 12.4965297 45.56644315 8.65283203 31.50634766 C6.57839412 23.96541195 4.35843675 16.4942403 1.91015625 9.06640625 C1 6 1 6 0 0 Z M161 536 C160.67 536.66 160.34 537.32 160 538 C160.66 538 161.32 538 162 538 C161.67 537.34 161.34 536.68 161 536 Z " fill="#64D384" transform="translate(581,0)"/>
<path d="M0 0 C0 3.51716303 -0.82445585 4.37121748 -3 7 C-3.66 6.67 -4.32 6.34 -5 6 C-3.35 4.02 -1.7 2.04 0 0 Z M-7 8 C-6.67 8.99 -6.34 9.98 -6 11 C-8.2658449 13.46297206 -10.53851457 15.91954381 -12.8125 18.375 C-13.45509766 19.07367187 -14.09769531 19.77234375 -14.75976562 20.4921875 C-15.38173828 21.1625 -16.00371094 21.8328125 -16.64453125 22.5234375 C-17.50075073 23.450354 -17.50075073 23.450354 -18.37426758 24.39599609 C-20 26 -20 26 -23 28 C-21.46386447 24.43485124 -19.3161548 21.96129644 -16.6875 19.125 C-13.35325722 15.48959981 -10.1177076 11.8217061 -7 8 Z " fill="#55CC7F" transform="translate(715,559)"/>
<path d="M0 0 C0 0.66 0 1.32 0 2 C-0.66 2 -1.32 2 -2 2 C-2.33 2.99 -2.66 3.98 -3 5 C-4.56640625 6.54296875 -4.56640625 6.54296875 -6.5625 8.1875 C-10.94958964 11.90026302 -14.9864508 15.89038181 -19 20 C-19.33 19.01 -19.66 18.02 -20 17 C-19.13375 16.319375 -18.2675 15.63875 -17.375 14.9375 C-14.26876688 12.37596179 -11.79366157 9.50329912 -9.296875 6.35546875 C-8.86890625 5.90816406 -8.4409375 5.46085938 -8 5 C-7.34 5 -6.68 5 -6 5 C-6 4.34 -6 3.68 -6 3 C-2.53846154 0 -2.53846154 0 0 0 Z " fill="#27A963" transform="translate(694,571)"/>
<path d="M0 0 C0 3 0 3 -1.3894043 4.71411133 C-2.02789307 5.3305249 -2.66638184 5.94693848 -3.32421875 6.58203125 C-4.02353516 7.26716797 -4.72285156 7.95230469 -5.44335938 8.65820312 C-6.55420898 9.72458008 -6.55420898 9.72458008 -7.6875 10.8125 C-12.38704526 15.369253 -16.92005201 19.8739115 -21 25 C-21.66 24.67 -22.32 24.34 -23 24 C-15.56910426 15.7499504 -7.9129408 7.78865378 0 0 Z " fill="#27A865" transform="translate(659,605)"/>
<path d="M0 0 C0.66 0.33 1.32 0.66 2 1 C1.43152344 1.68964844 0.86304688 2.37929688 0.27734375 3.08984375 C-4.08205395 8.39535448 -8.37655978 13.7252115 -12.4921875 19.22265625 C-14 21 -14 21 -17 23 C-17 21.68 -17 20.36 -17 19 C-16.4225 18.814375 -15.845 18.62875 -15.25 18.4375 C-11.89572157 16.29448878 -10.82092004 13.51177437 -9 10 C-8.34 10 -7.68 10 -7 10 C-6.87625 9.360625 -6.7525 8.72125 -6.625 8.0625 C-6.41875 7.381875 -6.2125 6.70125 -6 6 C-5.34 5.67 -4.68 5.34 -4 5 C-3.67 4.01 -3.34 3.02 -3 2 C-2.01 1.34 -1.02 0.68 0 0 Z " fill="#6BD889" transform="translate(737,545)"/>
<path d="M0 0 C0 5.53472356 -4.02457679 9.14202015 -7.75 12.875 C-8.82844537 13.92172639 -9.91009937 14.9652067 -11 16 C-11 12.10022964 -9.80864575 11.36311158 -7.1875 8.5625 C-4.62208295 5.80082153 -2.20782154 3.05751943 0 0 Z M-15 18 C-15 18.99 -15 19.98 -15 21 C-15.99 21.66 -16.98 22.32 -18 23 C-16.125 19.125 -16.125 19.125 -15 18 Z " fill="#5DD283" transform="translate(511,838)"/>
<path d="M0 0 C0.33 0.99 0.66 1.98 1 3 C-0.07421875 5.05078125 -0.07421875 5.05078125 -1.6875 7.3125 C-2.244375 8.10398437 -2.80125 8.89546875 -3.375 9.7109375 C-3.91125 10.46632813 -4.4475 11.22171875 -5 12 C-5.73321977 13.14324399 -6.46310016 14.28864713 -7.1875 15.4375 C-9 18 -9 18 -12 20 C-10.24394464 12.72491349 -10.24394464 12.72491349 -7 10 C-6.34 10 -5.68 10 -5 10 C-4.9175 9.46375 -4.835 8.9275 -4.75 8.375 C-3.73623902 5.1647569 -1.92839451 2.73707608 0 0 Z " fill="#72DB8C" transform="translate(682,647)"/>
<path d="M0 0 C0.66 0.66 1.32 1.32 2 2 C1.46890625 2.56847656 0.9378125 3.13695312 0.390625 3.72265625 C-3.77956037 8.28094281 -7.06499846 12.58153562 -10 18 C-10.66 18.33 -11.32 18.66 -12 19 C-10.20419732 11.3678386 -6.51872292 7.51872292 -1 2 C-0.67 1.34 -0.34 0.68 0 0 Z " fill="#5CCF81" transform="translate(699,596)"/>
<path d="M0 0 C0.33 0.66 0.66 1.32 1 2 C0.24203125 2.81404297 0.24203125 2.81404297 -0.53125 3.64453125 C-1.1809375 4.35996094 -1.830625 5.07539062 -2.5 5.8125 C-3.1496875 6.52019531 -3.799375 7.22789062 -4.46875 7.95703125 C-6.29987759 9.97457093 -6.29987759 9.97457093 -6 13 C-8.5 15.1875 -8.5 15.1875 -11 17 C-11 10.56501122 -6.52847478 6.4287096 -2.125 2 C-1.42375 1.34 -0.7225 0.68 0 0 Z " fill="#60D183" transform="translate(718,570)"/>
<path d="M0 0 C0.66 0.33 1.32 0.66 2 1 C0.38753587 4.53566354 -1.71959647 7.54775323 -4 10.6875 C-4.70125 11.66074219 -5.4025 12.63398437 -6.125 13.63671875 C-8 16 -8 16 -10 17 C-7.6326479 10.62635972 -3.96403559 5.46394095 0 0 Z " fill="#6CD888" transform="translate(578,794)"/>
<path d="M0 0 C0.66 0.33 1.32 0.66 2 1 C0.68 1.99 -0.64 2.98 -2 4 C-1.34 2.68 -0.68 1.36 0 0 Z M-3 4 C-2.67 4.99 -2.34 5.98 -2 7 C-5.3 10.3 -8.6 13.6 -12 17 C-12 12.86218946 -10.28490393 11.79080004 -7.5 8.8125 C-6.6646875 7.91144531 -5.829375 7.01039063 -4.96875 6.08203125 C-3.99421875 5.05142578 -3.99421875 5.05142578 -3 4 Z " fill="#49C579" transform="translate(667,615)"/>
<path d="M0 0 C0.66 0.33 1.32 0.66 2 1 C-7.41002278 10.59453303 -7.41002278 10.59453303 -12 14 C-12.66 13.67 -13.32 13.34 -14 13 C-11.30471327 9.30645893 -8.91020886 7.28890275 -5 5 C-3.2958946 3.37163262 -1.61974559 1.71230248 0 0 Z " fill="#12874D" transform="translate(664,587)"/>
<path d="M0 0 C0.66 0.33 1.32 0.66 2 1 C1.265611 2.32129824 0.51183106 3.63183171 -0.25 4.9375 C-0.66765625 5.66839844 -1.0853125 6.39929688 -1.515625 7.15234375 C-3.25593617 9.31857318 -4.29561004 9.63594751 -7 10 C-5.79618552 7.50638429 -4.54571278 5.31856917 -3 3 C-2.34 3 -1.68 3 -1 3 C-0.67 2.01 -0.34 1.02 0 0 Z " fill="#70D98A" transform="translate(436,963)"/>
<path d="M0 0 C0.66 0.33 1.32 0.66 2 1 C0.88147781 2.98283479 -0.24501325 4.96117623 -1.375 6.9375 C-2.31472656 8.59072266 -2.31472656 8.59072266 -3.2734375 10.27734375 C-5 13 -5 13 -7 14 C-5.41944248 8.89358339 -3.8407594 3.8407594 0 0 Z " fill="#78DD8F" transform="translate(724,582)"/>
<path d="M0 0 C0.66 0 1.32 0 2 0 C0.49087042 4.98012761 -2.55661849 8.24259942 -6 12 C-6 8.62545614 -5.53355627 8.02276644 -3.5625 5.4375 C-2.19935039 3.63161804 -1.01326281 2.02652561 0 0 Z " fill="#6BD889" transform="translate(599,765)"/>
<path d="M0 0 C2.08466413 3.38757921 2.42905061 6.05273438 2 10 C1.01 10.66 0.02 11.32 -1 12 C-1.02698189 10.37509046 -1.04638757 8.75005367 -1.0625 7.125 C-1.07410156 6.22007813 -1.08570313 5.31515625 -1.09765625 4.3828125 C-1 2 -1 2 0 0 Z " fill="#89E699" transform="translate(721,116)"/>
<path d="M0 0 C0 3 0 3 -1 5 C-1.66 5 -2.32 5 -3 5 C-3.66 6.32 -4.32 7.64 -5 9 C-5.99 9 -6.98 9 -8 9 C-5.36 6.03 -2.72 3.06 0 0 Z " fill="#2EB269" transform="translate(309,1013)"/>
<path d="M0 0 C0.66 0 1.32 0 2 0 C2 3.63 2 7.26 2 11 C1.34 10.67 0.68 10.34 0 10 C-0.44921875 7.96875 -0.44921875 7.96875 -0.6875 5.5 C-0.77386719 4.6853125 -0.86023438 3.870625 -0.94921875 3.03125 C-0.96597656 2.3609375 -0.98273437 1.690625 -1 1 C-0.67 0.67 -0.34 0.34 0 0 Z " fill="#8AE59A" transform="translate(734,276)"/>
<path d="M0 0 C0 3.39593478 -0.52165948 4.06619881 -2.5 6.6875 C-2.9640625 7.31011719 -3.428125 7.93273437 -3.90625 8.57421875 C-4.2671875 9.04472656 -4.628125 9.51523437 -5 10 C-5.66 9.34 -6.32 8.68 -7 8 C-6.01 7.67 -5.02 7.34 -4 7 C-3.896875 6.21625 -3.79375 5.4325 -3.6875 4.625 C-3 2 -3 2 0 0 Z " fill="#6AD688" transform="translate(547,838)"/>
<path d="M0 0 C0.33 0.99 0.66 1.98 1 3 C-1.31 5.31 -3.62 7.62 -6 10 C-6 6.41087588 -5.33563446 5.89142971 -3 3.3125 C-2.443125 2.68988281 -1.88625 2.06726563 -1.3125 1.42578125 C-0.879375 0.95527344 -0.44625 0.48476563 0 0 Z " fill="#5FD284" transform="translate(544,798)"/>
<path d="M0 0 C-0.34879632 3.25543229 -1.02133261 4.01873107 -3.5625 6.25 C-4.366875 6.8275 -5.17125 7.405 -6 8 C-5.40138258 5.64828869 -4.73075648 3.3140622 -4 1 C-2 0 -2 0 0 0 Z " fill="#6CD98A" transform="translate(624,734)"/>
<path d="M0 0 C1 3 1 3 -0.25 5.5625 C-2 8 -2 8 -5 10 C-3.99480361 5.83561496 -3.22782646 2.9471459 0 0 Z " fill="#69D687" transform="translate(675,657)"/>
<path d="M0 0 C0.66 0 1.32 0 2 0 C0.64978174 4.41889613 -1.26115668 6.34345343 -5 9 C-3.50079488 5.88626628 -1.91847864 2.87771795 0 0 Z " fill="#32B56B" transform="translate(710,561)"/>
<path d="M0 0 C0 3 0 3 -1.3125 4.38671875 C-2.875 5.59114583 -4.4375 6.79557292 -6 8 C-4.73058503 4.08597051 -3.48832306 2.20927127 0 0 Z " fill="#20A05E" transform="translate(604,661)"/>
</svg>
